<?xml version="1.0" standalone="no"?>
<!DOCTYPE svg PUBLIC "-//W3C//DTD SVG 20010904//EN"
 "http://www.w3.org/TR/2001/REC-SVG-20010904/DTD/svg10.dtd">
<svg version="1.0" xmlns="http://www.w3.org/2000/svg"
 width="656.000000pt" height="656.000000pt" viewBox="0 0 656.000000 656.000000"
 preserveAspectRatio="xMidYMid meet">
<metadata>
Created by potrace 1.14, written by Peter Selinger 2001-2017
</metadata>
<g transform="translate(0.000000,656.000000) scale(0.100000,-0.100000)"
fill="#000000" stroke="none">
<path d="M3058 5875 c-2 -3 -31 -7 -64 -10 -32 -2 -68 -7 -79 -9 -11 -2 -40
-7 -65 -10 -36 -5 -184 -37 -280 -61 -41 -10 -185 -60 -265 -92 -86 -35 -315
-149 -325 -162 -3 -4 -16 -11 -30 -17 -29 -13 -241 -167 -296 -215 -70 -62
-206 -203 -263 -274 -31 -38 -59 -71 -63 -73 -5 -2 -8 -10 -8 -18 0 -8 -4 -14
-9 -14 -5 0 -13 -9 -16 -20 -3 -11 -12 -26 -19 -32 -28 -30 -127 -208 -169
-308 -79 -186 -120 -350 -143 -575 -11 -103 -2 -324 17 -430 6 -33 13 -71 15
-85 3 -14 18 -70 34 -125 17 -55 32 -107 34 -115 5 -21 31 -78 92 -205 47 -99
172 -301 194 -315 5 -3 -14 -31 -43 -62 -78 -85 -91 -102 -140 -175 -77 -115
-151 -280 -171 -378 -3 -11 -9 -41 -15 -67 -19 -82 -24 -215 -9 -220 22 -7
2478 -2 2543 6 33 4 71 9 85 11 14 2 50 7 80 11 30 4 57 8 60 9 3 1 25 5 50 9
117 21 305 76 432 127 194 77 443 214 553 305 23 19 44 34 47 34 10 0 96 78
203 185 248 247 409 516 508 850 16 53 39 156 43 190 1 11 4 34 8 52 13 69 20
303 11 398 -29 319 -118 569 -318 889 -12 20 -23 34 -55 75 l-18 24 44 46
c107 111 214 276 264 407 26 68 39 104 40 114 0 3 4 16 9 29 5 13 12 40 15 60
3 20 7 42 10 49 2 8 7 54 10 103 l6 90 -1270 -1 c-698 -1 -1272 -3 -1274 -5z
m1035 -1715 c-1 -340 -3 -405 -18 -465 -83 -332 -409 -563 -799 -568 -113 -1
-290 39 -391 90 -109 55 -234 157 -285 233 -8 12 -23 32 -32 44 -33 44 -73
146 -95 241 -8 40 -10 161 -2 183 6 15 5 22 -4 22 -9 0 -9 2 1 9 7 4 12 12 11
17 -2 5 5 34 14 64 9 30 16 59 16 64 -1 5 3 12 8 15 4 3 19 26 32 51 49 91
151 200 232 249 104 63 188 102 254 117 108 26 178 29 604 29 l455 0 -1 -395z
m-1847 -766 c1 -9 0 -13 -4 -10 -3 4 -7 14 -8 22 -1 9 0 13 4 10 3 -4 7 -14 8
-22z m-521 -143 c3 -5 2 -12 -3 -15 -5 -3 -9 1 -9 9 0 17 3 19 12 6z m485 -5
c0 -3 -4 -8 -10 -11 -5 -3 -10 -1 -10 4 0 6 5 11 10 11 6 0 10 -2 10 -4z m397
-41 c0 -8 -4 -15 -9 -15 -10 0 -11 14 -1 23 9 10 10 9 10 -8z m-880 -200 c0
-8 -4 -12 -9 -9 -5 3 -6 10 -3 15 9 13 12 11 12 -6z"/>
<path d="M3790 1435 c-77 -21 -97 -33 -145 -80 -30 -29 -45 -51 -41 -61 3 -8
2 -12 -3 -9 -8 4 -23 -22 -26 -45 0 -3 -3 -9 -6 -15 -6 -9 -5 -127 1 -132 1
-2 3 -6 4 -10 8 -36 19 -69 24 -73 4 -3 20 -22 35 -42 15 -21 35 -38 43 -38 7
0 14 -4 14 -9 0 -10 27 -21 44 -20 5 0 12 -5 17 -13 6 -9 33 -13 91 -13 73 0
90 4 141 31 33 17 58 34 58 37 -1 4 10 18 23 30 35 32 66 121 66 188 0 64 -36
158 -69 181 -12 8 -18 17 -15 20 3 3 -8 12 -25 19 -16 7 -28 16 -26 20 5 8
-68 30 -113 35 -18 2 -36 5 -40 7 -4 2 -27 -1 -52 -8z m158 -125 c47 -35 67
-83 65 -155 -1 -83 -5 -97 -31 -123 -12 -13 -19 -28 -16 -34 4 -6 3 -8 -3 -5
-6 4 -25 0 -42 -9 -29 -15 -109 -16 -150 -3 -24 7 -63 51 -78 87 -17 40 -25
122 -12 122 5 0 6 6 3 14 -11 29 65 134 87 120 4 -2 10 0 14 5 3 5 33 9 68 8
49 -2 69 -7 95 -27z"/>
<path d="M6230 1440 c0 -6 -4 -9 -8 -6 -12 7 -92 -15 -92 -25 0 -5 -8 -9 -17
-9 -26 0 -109 -96 -122 -142 -16 -52 -22 -146 -10 -154 5 -3 7 -10 4 -15 -10
-14 29 -91 66 -130 37 -39 94 -73 108 -64 5 3 11 0 13 -5 2 -6 16 -13 31 -16
21 -3 27 -1 21 8 -5 10 -4 11 7 1 7 -7 21 -13 31 -13 10 0 18 6 18 13 0 9 3 8
9 -2 7 -10 13 -11 30 -2 11 7 21 10 21 7 0 -3 16 2 36 10 42 18 114 81 114
101 0 7 6 16 13 19 16 6 15 5 23 99 l6 70 -144 -1 c-78 -1 -146 -2 -150 -3 -5
-1 -8 -19 -8 -41 l0 -39 99 2 98 2 -10 -25 c-6 -14 -19 -37 -29 -51 -9 -14
-14 -29 -10 -33 4 -4 2 -7 -3 -6 -19 4 -36 0 -32 -7 8 -13 -103 -15 -141 -2
-78 26 -123 106 -111 198 7 55 26 101 41 101 4 0 8 8 8 17 0 9 3 13 7 10 3 -4
15 1 25 10 14 13 38 17 93 18 40 0 73 -2 72 -5 -1 -3 12 -19 29 -35 31 -29 55
-34 141 -26 18 2 -16 60 -59 101 -46 43 -120 74 -138 57 -10 -9 -11 -9 -6 0 4
8 -3 11 -22 11 -16 -1 -34 2 -41 6 -6 4 -11 2 -11 -4z m-140 -380 c0 -5 -2
-10 -4 -10 -3 0 -8 5 -11 10 -3 6 -1 10 4 10 6 0 11 -4 11 -10z"/>
<path d="M205 1418 c-27 -11 -57 -27 -66 -36 -9 -9 -26 -25 -39 -35 -12 -10
-19 -24 -16 -32 3 -10 0 -12 -12 -8 -9 3 -14 3 -10 -2 4 -4 4 -13 -1 -19 -19
-25 -29 -74 -18 -86 9 -10 9 -11 0 -6 -10 5 -13 -5 -13 -39 0 -34 3 -44 13
-39 9 5 9 4 0 -6 -8 -9 -7 -23 4 -56 8 -24 19 -44 25 -44 5 0 7 -4 4 -9 -8
-12 19 -33 29 -23 5 4 5 2 2 -5 -8 -13 62 -75 75 -67 4 3 8 0 8 -7 0 -7 3 -10
6 -7 3 4 17 0 30 -7 46 -23 196 -7 239 27 49 38 84 71 80 78 -3 4 2 10 10 14
8 3 15 14 15 24 0 10 5 23 11 29 33 33 11 219 -29 251 -9 6 -12 12 -7 12 20 0
-61 71 -104 91 -64 30 -169 34 -236 7z m231 -125 c24 -29 47 -85 49 -121 4
-44 -16 -117 -37 -142 -10 -11 -18 -25 -18 -31 0 -5 -5 -7 -10 -4 -6 4 -18 1
-26 -6 -40 -33 -151 -24 -189 15 -36 37 -56 79 -59 125 -2 28 -10 59 -17 68
-13 16 -12 17 4 4 15 -12 17 -11 18 10 1 13 1 27 0 32 0 4 3 7 9 7 5 0 10 7
10 15 0 8 5 15 10 15 6 0 10 8 10 17 0 9 3 13 7 10 3 -4 15 0 24 9 10 9 35 19
56 21 20 2 39 6 41 8 8 8 104 -34 118 -52z"/>
<path d="M2635 1432 c-4 -4 -10 -7 -14 -7 -4 0 -24 -11 -44 -25 -54 -37 -77
-118 -50 -172 7 -16 11 -28 7 -28 -10 0 50 -45 76 -57 14 -6 45 -17 70 -24 25
-7 49 -16 55 -21 5 -4 17 -8 26 -8 9 0 20 -7 23 -16 3 -8 10 -13 15 -10 4 3 5
-13 1 -37 -5 -27 -4 -44 2 -48 6 -4 0 -7 -13 -7 -28 0 -50 -5 -66 -15 -6 -4
-14 -3 -18 3 -3 5 -15 10 -26 10 -11 0 -22 7 -25 15 -4 8 -10 12 -15 9 -5 -3
-9 -2 -8 3 6 33 -2 39 -56 38 -59 -1 -71 -7 -59 -27 5 -7 9 -19 11 -27 5 -39
92 -109 116 -94 4 2 7 0 7 -6 0 -11 19 -9 39 3 10 7 12 5 6 -4 -7 -12 5 -12
113 2 6 1 12 5 12 10 0 4 6 8 13 8 20 0 69 59 61 72 -4 7 -3 8 4 4 12 -7 15 4
15 59 0 54 -4 65 -30 93 -30 31 -86 62 -113 62 -9 0 -20 4 -26 8 -5 5 -27 14
-50 20 -25 7 -45 21 -53 36 -43 80 88 136 135 57 15 -26 21 -28 75 -28 33 0
59 3 59 6 0 3 -5 23 -10 43 -8 28 -23 46 -57 69 -41 29 -55 33 -124 35 -43 1
-80 -1 -84 -4z"/>
<path d="M3017 1425 c-6 -20 -1 -240 6 -252 4 -6 4 -14 -1 -17 -11 -6 -8 -208
3 -226 5 -8 4 -11 -3 -6 -7 4 -10 -1 -9 -14 1 -11 5 -20 10 -20 4 0 6 -4 3 -8
-7 -12 48 -9 56 3 5 6 8 6 8 -2 0 -6 8 -10 17 -9 20 3 26 35 10 55 -7 8 -7 12
-1 8 7 -4 10 23 10 84 -1 87 1 94 33 89 8 -1 18 4 22 12 5 7 9 8 9 3 0 -13 79
-14 99 -1 9 6 12 5 7 -2 -4 -7 4 -10 21 -10 54 1 53 3 52 -89 -2 -157 -4 -150
35 -149 19 1 32 4 29 8 -2 5 1 8 6 8 6 0 11 -4 11 -10 0 -5 6 -7 13 -4 10 3
13 48 13 194 1 123 -3 187 -9 183 -6 -4 -7 -1 -1 8 13 20 13 169 0 170 -80 5
-96 3 -97 -11 -1 -8 -1 -51 -1 -95 2 -125 3 -123 -68 -121 -33 1 -62 -3 -64
-9 -3 -6 -5 -6 -5 0 -1 11 -73 11 -92 0 -8 -5 -10 -4 -5 3 4 7 3 12 -1 12 -5
0 -8 50 -7 110 1 74 -3 110 -10 111 -56 5 -96 2 -99 -6z"/>
<path d="M4219 1430 c-7 -39 -2 -260 6 -260 6 0 6 -3 0 -8 -7 -4 -10 -57 -9
-137 3 -171 1 -157 23 -146 10 6 21 7 25 4 4 -4 18 -8 31 -9 27 -1 43 25 23
38 -8 5 -9 8 -2 8 14 0 14 108 0 129 -6 10 -6 12 3 7 8 -6 11 -2 9 10 -3 17 7
20 83 25 94 6 165 34 163 63 -1 9 2 14 6 11 24 -15 49 76 37 133 -12 61 -72
119 -132 128 -53 8 -265 11 -266 4z m235 -94 c27 -5 46 -22 47 -43 1 -5 5 -16
10 -25 6 -12 6 -18 -1 -18 -5 0 -10 -8 -10 -19 0 -10 -7 -24 -15 -31 -17 -14
-130 -29 -145 -20 -9 6 -15 93 -11 150 1 16 61 19 125 6z"/>
<path d="M4719 1433 c-13 -3 -15 -37 -15 -280 1 -254 3 -276 19 -279 9 -1 17
3 17 9 0 8 3 8 8 2 9 -12 55 -16 62 -5 3 4 5 55 4 112 l-1 103 86 0 c73 0 93
4 129 24 23 14 42 30 42 37 0 7 5 14 11 16 5 2 11 10 12 18 2 8 5 20 8 25 3 6
7 30 8 53 1 32 -1 42 -10 36 -8 -4 -9 -3 -5 5 16 26 -77 125 -98 104 -3 -3 -6
-2 -6 4 0 5 -19 11 -42 12 -90 5 -185 4 -202 -2 -10 -4 -15 -3 -11 3 3 6 5 9
3 9 -2 -1 -10 -3 -19 -6z m233 -97 c27 -8 38 -29 42 -79 3 -29 -22 -67 -43
-67 -7 0 -9 -5 -5 -11 5 -8 1 -8 -14 0 -12 6 -23 8 -25 4 -4 -7 -27 -8 -83 -4
-7 1 -10 31 -10 84 l0 82 56 -1 c30 -1 67 -5 82 -8z"/>
<path d="M5195 1431 c-3 -2 -4 -127 -5 -277 0 -213 3 -274 12 -275 7 -1 25 -2
41 -3 15 -2 27 1 27 7 0 5 7 4 15 -3 13 -11 15 -6 16 36 1 27 0 54 -1 59 -5
25 -3 116 3 121 3 4 2 15 -3 25 -6 10 -7 20 -2 23 4 2 6 22 5 43 -5 61 -3 226
3 235 3 4 -1 8 -8 9 -46 3 -100 3 -103 0z"/>
<path d="M5415 1415 c-9 -46 -1 -325 9 -325 6 0 4 -5 -4 -10 -12 -8 -13 -13
-3 -29 7 -11 9 -22 4 -25 -5 -3 -8 -38 -7 -78 l1 -72 54 -1 c49 0 54 2 56 23
1 12 -3 22 -8 22 -6 0 -6 5 0 13 11 14 10 87 -1 105 -4 7 -3 12 1 12 12 0 10
124 -2 132 -6 5 -6 8 1 8 7 0 10 13 9 30 -1 17 0 30 4 30 3 -1 29 -37 56 -80
28 -44 53 -80 58 -80 4 0 7 -5 7 -10 0 -6 10 -26 23 -45 16 -26 27 -33 42 -29
18 4 18 4 3 -6 -15 -9 -13 -16 25 -70 28 -41 43 -56 49 -48 5 9 8 9 8 1 0 -12
17 -12 38 0 6 5 12 4 12 -2 0 -5 8 -8 18 -7 14 2 17 16 20 85 2 52 -1 80 -7
77 -5 -4 -13 -2 -16 4 -4 6 -1 9 7 8 10 -2 14 36 16 190 1 105 -1 192 -5 193
-5 1 -29 2 -55 3 l-47 1 -3 -168 c-2 -93 0 -171 4 -173 4 -3 4 -12 1 -21 -5
-13 -10 -11 -30 13 -12 16 -23 33 -23 38 0 15 -47 65 -55 58 -4 -4 -6 -2 -5 3
4 20 -12 55 -23 48 -6 -4 -7 -1 -2 7 5 8 2 18 -6 24 -17 14 -37 45 -45 69 -4
9 -9 17 -13 17 -4 0 -17 18 -30 40 -12 22 -25 40 -29 41 -4 1 -29 2 -55 3 -41
1 -48 -2 -52 -19z"/>
<path d="M792 1319 c-37 -7 -98 -47 -108 -69 -11 -25 -13 -100 -2 -100 5 0 7
-4 3 -9 -6 -11 52 -58 66 -54 5 2 9 -1 9 -6 0 -7 58 -23 95 -25 6 -1 16 -7 23
-13 7 -7 20 -13 28 -13 16 0 20 -45 4 -55 -6 -4 -7 -12 -3 -18 4 -8 1 -7 -9 1
-11 9 -18 10 -23 2 -13 -22 -90 7 -99 38 -5 15 -17 18 -61 18 -30 -1 -55 -5
-55 -9 0 -19 43 -89 58 -94 9 -4 19 -9 22 -12 14 -16 50 -30 50 -20 0 8 4 8
14 -1 21 -16 104 -10 148 12 21 10 45 29 54 43 18 27 26 95 12 95 -5 0 -7 4
-4 9 9 13 -35 57 -74 74 -19 8 -62 23 -95 33 -49 15 -61 23 -63 42 -6 42 41
58 105 38 11 -4 23 -15 26 -25 4 -16 14 -19 57 -19 l52 -1 -6 31 c-7 35 -53
83 -94 99 -34 14 -87 17 -130 8z"/>
<path d="M1905 1314 c-22 -8 -48 -24 -57 -35 -10 -12 -18 -18 -18 -14 0 14
-37 -40 -45 -65 -18 -57 -21 -166 -5 -185 4 -5 10 -14 12 -20 1 -5 6 -9 10 -8
4 2 5 -4 2 -11 -8 -20 62 -90 82 -82 8 3 12 2 9 -3 -8 -14 27 -22 80 -20 52 3
122 39 117 60 -3 11 -1 12 10 1 7 -7 13 -23 13 -35 0 -19 6 -21 52 -22 28 0
49 3 47 7 -3 4 -1 8 4 8 5 0 9 14 10 30 0 20 -3 28 -10 24 -7 -5 -8 -2 -2 7
13 22 15 50 4 64 -5 6 -6 15 -2 19 11 12 10 80 -2 88 -8 5 -7 8 1 8 14 0 15
58 1 66 -5 3 -5 11 0 17 5 7 9 32 8 57 l-1 45 -55 0 c-54 0 -55 -1 -52 -27 1
-14 -2 -29 -8 -33 -6 -4 -9 -1 -8 7 2 7 -5 12 -14 12 -10 -1 -16 2 -13 6 7 11
-17 28 -48 34 -15 2 -31 7 -37 11 -5 3 -10 0 -10 -7 0 -8 -3 -9 -8 -3 -10 15
-22 14 -67 -1z m166 -115 c19 -13 31 -32 35 -57 4 -20 12 -43 18 -51 8 -11 8
-13 -1 -7 -9 5 -13 0 -13 -16 0 -13 -8 -35 -17 -48 -10 -14 -16 -27 -15 -29 1
-3 -5 -6 -15 -7 -10 -2 -19 -7 -21 -13 -2 -5 -9 -8 -17 -5 -7 3 -16 1 -19 -5
-8 -12 -64 15 -93 45 -21 23 -33 61 -37 115 -1 15 1 26 4 24 3 -2 11 9 18 23
26 60 111 76 173 31z"/>
<path d="M1076 1313 c-3 -3 27 -114 41 -153 3 -8 7 -19 9 -25 1 -5 10 -35 19
-65 8 -30 17 -62 19 -70 3 -8 5 -16 6 -17 3 -4 5 -12 14 -55 5 -21 12 -38 18
-38 5 0 7 -4 4 -9 -8 -12 37 -8 46 4 5 6 8 5 8 -4 0 -10 3 -11 14 -2 10 9 16
9 21 1 16 -26 37 16 50 100 0 3 4 11 8 18 5 6 5 17 2 22 -3 6 0 10 7 10 10 0
10 2 -1 9 -9 6 -10 10 -2 12 6 2 12 18 14 36 1 17 5 29 10 26 4 -2 7 6 7 19 0
28 19 63 21 38 1 -15 2 -20 13 -67 12 -45 15 -59 30 -116 9 -32 16 -60 16 -63
0 -3 6 -2 13 2 9 6 9 5 0 -7 -21 -26 6 -45 62 -43 63 2 65 2 64 12 -1 4 0 10
1 15 3 10 6 18 14 52 4 17 14 47 22 68 8 20 14 40 15 45 2 10 5 21 18 61 6 18
8 37 5 42 -3 5 -1 9 4 9 8 0 16 21 27 80 2 8 6 25 10 37 6 20 4 21 -47 20 -29
-1 -53 -6 -54 -12 0 -5 -4 -28 -9 -50 -11 -49 -10 -47 -18 -65 -9 -24 -20 -77
-31 -147 -1 -7 -5 -15 -8 -19 -4 -3 -4 -12 -2 -18 3 -7 -2 -13 -10 -13 -8 0
-13 4 -10 8 4 7 -1 34 -26 124 -6 22 -13 51 -15 65 -3 14 -11 48 -18 75 l-13
50 -59 0 -59 0 -13 -55 c-17 -71 -21 -85 -23 -85 -1 0 -3 -10 -6 -22 -2 -13
-6 -33 -8 -45 -3 -13 -6 -25 -7 -28 -1 -3 -3 -9 -4 -15 -18 -81 -17 -79 -31
-54 -7 13 -11 26 -9 30 2 3 -3 28 -11 55 -9 27 -17 63 -20 79 -3 17 -10 55
-18 85 l-13 55 -51 1 c-29 0 -53 -1 -56 -3z m565 -200 c13 -16 12 -17 -3 -4
-17 13 -22 21 -14 21 2 0 10 -8 17 -17z m-160 -46 c-10 -9 -11 -8 -5 6 3 10 9
15 12 12 3 -3 0 -11 -7 -18z"/>
</g>
</svg>
