<svg width="130" height="36" viewBox="0 0 130 36" fill="none" xmlns="http://www.w3.org/2000/svg">
<path d="M108 30.1569L121.75 17.5915L108 5.02615L110.75 0L130 17.5915L110.75 35.1831L108 30.1569Z" fill="white"/>
<path d="M81 30.1569L94.75 17.5915L81 5.02615L83.75 0L103 17.5915L83.75 35.1831L81 30.1569Z" fill="white"/>
<path d="M54 30.1569L67.75 17.5915L54 5.02615L56.75 0L76 17.5915L56.75 35.1831L54 30.1569Z" fill="white"/>
<path d="M27 30.1569L40.75 17.5915L27 5.02615L29.75 0L49 17.5915L29.75 35.1831L27 30.1569Z" fill="white"/>
<path d="M0 30.1569L13.75 17.5915L0 5.02615L2.75 0L22 17.5915L2.75 35.1831L0 30.1569Z" fill="white"/>
</svg>
