<svg width="31" height="30" viewBox="0 0 31 30" fill="none" xmlns="http://www.w3.org/2000/svg">
<path d="M20.0507 15V14.9987C20.0507 13.8422 19.6497 12.7215 18.9159 11.8274C18.1822 10.9334 17.1612 10.3215 16.0269 10.0958C14.8926 9.87019 13.7151 10.0448 12.6951 10.59C11.6751 11.1351 10.8757 12.0171 10.4331 13.0856C9.9904 14.154 9.93191 15.343 10.2676 16.4497C10.6032 17.5565 11.3122 18.5127 12.2738 19.1553C13.2353 19.7979 14.39 20.0873 15.5409 19.9741C16.6919 19.8609 17.7681 19.3521 18.586 18.5344C19.0501 18.0858 19.419 17.5482 19.6706 16.9538C19.9223 16.3595 20.0516 15.7205 20.0507 15.075L20.0495 14.9962V15H20.0507ZM22.7503 15C22.7443 16.7728 22.1242 18.4887 20.9955 19.8557C19.8668 21.2228 18.2993 22.1565 16.5597 22.498C14.8201 22.8394 13.0159 22.5675 11.4542 21.7285C9.89253 20.8896 8.6698 19.5354 7.99413 17.8964C7.31846 16.2574 7.2316 14.4349 7.74833 12.7391C8.26507 11.0433 9.35346 9.57897 10.8283 8.59527C12.3031 7.61158 14.0732 7.16933 15.8374 7.34379C17.6016 7.51826 19.2508 8.29865 20.5044 9.55216C21.2163 10.2429 21.7821 11.0698 22.1681 11.9835C22.5541 12.8973 22.7525 13.8793 22.7515 14.8713L22.7503 15.0075V15.0012V15ZM24.8587 6.99383V6.99633C24.8588 7.41271 24.7146 7.81625 24.4505 8.1382C24.1865 8.46015 23.819 8.68058 23.4106 8.76193C23.0023 8.84329 22.5783 8.78053 22.2111 8.58436C21.8438 8.38818 21.5559 8.07073 21.3965 7.68609C21.237 7.30146 21.2159 6.87343 21.3366 6.47495C21.4574 6.07647 21.7126 5.73219 22.0588 5.50078C22.4049 5.26936 22.8206 5.16513 23.235 5.20584C23.6493 5.24655 24.0368 5.42969 24.3313 5.72405C24.6512 6.03774 24.8499 6.47517 24.8499 6.95884V6.99508V6.99383H24.8587ZM15.0603 2.69455L13.5668 2.68455C12.662 2.67789 11.975 2.67789 11.5059 2.68455C11.0368 2.69122 10.4086 2.7108 9.62123 2.74329C8.8901 2.76829 8.19646 2.84078 7.51783 2.95576L7.60906 2.94326C7.0779 3.03074 6.60673 3.15572 6.15555 3.32195L6.2093 3.30445C5.57191 3.56067 4.99228 3.94194 4.5046 4.42576C4.01692 4.90957 3.63106 5.48615 3.36977 6.12148L3.35727 6.15522C3.19685 6.59429 3.07802 7.04746 3.00233 7.50875L2.99608 7.55499C2.88492 8.2117 2.81853 8.8752 2.79736 9.54091L2.79611 9.56715C2.76362 10.3554 2.74404 10.9836 2.73737 11.4518C2.73071 11.9201 2.73071 12.6071 2.73737 13.5127C2.74404 14.4184 2.74737 14.9163 2.74737 15.0062C2.74737 15.0962 2.74404 15.5941 2.73737 16.4997C2.73071 17.4054 2.73071 18.0924 2.73737 18.5607C2.74404 19.0289 2.76362 19.6571 2.79611 20.4453C2.82111 21.1765 2.8936 21.8701 3.00858 22.5487L2.99608 22.4575C3.08357 22.9887 3.20855 23.4598 3.37477 23.911L3.35727 23.8573C3.6135 24.4947 3.99476 25.0743 4.47858 25.562C4.9624 26.0497 5.53897 26.4355 6.1743 26.6968L6.20805 26.7093C6.60548 26.858 7.07665 26.983 7.56157 27.0642L7.60781 27.0705C8.19397 27.173 8.8876 27.2455 9.59248 27.2692L9.61873 27.2705C10.4069 27.3029 11.0352 27.3225 11.5034 27.3292C11.9717 27.3359 12.6586 27.3359 13.5643 27.3292L15.0491 27.2992L16.5426 27.3092C17.4474 27.3159 18.1344 27.3159 18.6035 27.3092C19.0726 27.3025 19.7008 27.283 20.4882 27.2505C21.2193 27.2255 21.9129 27.153 22.5916 27.038L22.5003 27.0505C23.0315 26.963 23.5027 26.838 23.9538 26.6718L23.9001 26.6893C24.5375 26.4331 25.1171 26.0518 25.6048 25.568C26.0925 25.0842 26.4783 24.5076 26.7396 23.8723L26.7521 23.8385C26.9008 23.4411 27.0258 22.9699 27.1071 22.485L27.1133 22.4388C27.2158 21.8526 27.2883 21.159 27.312 20.4541L27.3133 20.4278C27.3458 19.6396 27.3654 19.0114 27.372 18.5432C27.3787 18.0749 27.3787 17.3879 27.372 16.4823C27.3654 15.5766 27.362 15.0787 27.362 14.9888C27.362 14.8988 27.3654 14.4009 27.372 13.4952C27.3787 12.5896 27.3787 11.9026 27.372 11.4343C27.3654 10.9661 27.3458 10.3379 27.3133 9.54966C27.2883 8.81853 27.2158 8.1249 27.1008 7.44626L27.1133 7.53749C27.034 7.04196 26.9072 6.55521 26.7346 6.08399L26.7521 6.13773C26.4959 5.50034 26.1146 4.92071 25.6308 4.43303C25.147 3.94535 24.5704 3.55949 23.9351 3.2982L23.9013 3.2857C23.4623 3.12528 23.0091 3.00645 22.5478 2.93076L22.5016 2.92451C21.8453 2.81341 21.1822 2.74702 20.5169 2.7258L20.4907 2.72455C19.7025 2.69205 19.0742 2.67247 18.606 2.66581C18.1377 2.65914 17.4508 2.65914 16.5451 2.66581L15.0603 2.69455ZM30.0491 15C30.0491 17.9812 30.0157 20.0446 29.9491 21.1902C30.0082 22.3512 29.8226 23.5117 29.4045 24.5965C28.9864 25.6812 28.3451 26.666 27.522 27.4871C26.699 28.3081 25.7127 28.9471 24.6269 29.3625C23.5411 29.778 22.3802 29.9607 21.2193 29.8988L21.2393 29.9C20.0936 29.9667 18.0302 30 15.0491 30C12.0679 30 10.0045 29.9667 8.85885 29.9C7.69782 29.9591 6.53733 29.7736 5.45258 29.3555C4.36783 28.9374 3.38303 28.296 2.562 27.473C1.74096 26.6499 1.10201 25.6636 0.686554 24.5778C0.271097 23.4921 0.0884006 22.3311 0.150305 21.1702L0.149056 21.1902C0.0824 20.0446 0.0490723 17.9812 0.0490723 15C0.0490723 12.0188 0.0824 9.95542 0.149056 8.80978C0.0899798 7.64875 0.275504 6.48825 0.693606 5.40351C1.11171 4.31876 1.75306 3.33396 2.5761 2.51292C3.39913 1.69189 4.38549 1.05294 5.47126 0.637482C6.55702 0.222024 7.71796 0.0393283 8.87885 0.101233L8.85885 0.0999833C10.0045 0.0333278 12.0679 0 15.0491 0C18.0302 0 20.0936 0.0333278 21.2393 0.0999833C22.4003 0.0409075 23.5608 0.226432 24.6456 0.644534C25.7303 1.06264 26.7151 1.70399 27.5361 2.52702C28.3572 3.35006 28.9961 4.33642 29.4116 5.42219C29.827 6.50795 30.0097 7.66889 29.9478 8.82978L29.9491 8.80978C30.0157 9.95459 30.0491 12.018 30.0491 15Z" fill="black"/>
</svg>
