<svg width="164" height="130" viewBox="0 0 164 130" fill="none" xmlns="http://www.w3.org/2000/svg">
<path d="M24 101.873C23.9875 93.5746 27.5446 85.5782 33.9592 79.4848C34.9244 78.5609 35.95 77.6872 37.031 76.8681C43.86 71.6783 52.5911 68.8253 61.6221 68.8329H82.2576C82.345 68.8329 82.4324 68.8329 82.5197 68.8329C88.2647 68.8113 93.9357 67.6937 99.1403 65.5575C99.6547 65.3562 100.158 65.1346 100.654 64.9087C107.159 61.9477 112.612 57.4736 116.418 51.9751C120.224 46.4767 122.236 40.1654 122.234 33.7308C122.234 33.5006 122.234 33.2747 122.223 33.0445C122.194 31.5323 122.052 30.0235 121.796 28.528C121.282 25.4775 120.307 22.5007 118.899 19.6761C118.641 19.1625 118.367 18.6538 118.074 18.1499C117.965 17.9428 117.85 17.7415 117.725 17.5446C117.441 17.0508 117.134 16.5657 116.818 16.0849C113.162 10.581 107.877 6.04936 101.525 2.97144C101.553 2.9775 101.58 2.98573 101.607 2.99605C101.947 3.10176 102.29 3.21181 102.624 3.32766C102.959 3.4435 103.284 3.54776 103.614 3.66361C103.739 3.70705 103.859 3.75483 103.985 3.79827L104.809 4.10091C105.525 4.36928 106.235 4.65262 106.941 4.95092C107.297 5.09573 107.647 5.24053 107.996 5.40271C108.263 5.51855 108.532 5.63729 108.794 5.76327C108.981 5.84436 109.165 5.9269 109.347 6.01813C109.663 6.16294 109.98 6.32077 110.298 6.47426C110.555 6.59879 110.817 6.72912 111.075 6.86379C111.873 7.27214 112.66 7.69641 113.436 8.13662C113.715 8.29011 113.988 8.44795 114.26 8.61158L114.626 8.82733C114.905 8.99096 115.179 9.15894 115.451 9.33125C115.723 9.50357 116.003 9.67734 116.275 9.854C116.478 9.97853 116.679 10.1089 116.877 10.2421C117.495 10.6504 118.102 11.0733 118.691 11.5004C118.899 11.6452 119.101 11.79 119.298 11.9348C119.494 12.0797 119.725 12.2462 119.932 12.4098C119.951 12.4185 119.968 12.4297 119.982 12.4431C120.272 12.6632 120.561 12.8891 120.846 13.1194C121.874 13.9303 122.868 14.775 123.83 15.6534C124.038 15.8402 124.246 16.0372 124.449 16.2326C124.52 16.2949 124.585 16.3572 124.651 16.4252C124.859 16.6222 125.072 16.8278 125.275 17.0305C125.629 17.3766 125.974 17.727 126.318 18.0818C126.505 18.2744 126.689 18.4713 126.871 18.661C127.362 19.1842 127.84 19.7152 128.304 20.2539C128.469 20.4363 128.615 20.6188 128.769 20.8012C128.922 20.9837 129.085 21.1806 129.239 21.3674L129.359 21.5122C129.55 21.7468 129.73 21.9785 129.911 22.2131C130.027 22.3579 130.136 22.5027 130.241 22.6475C130.269 22.6808 130.295 22.7098 130.317 22.7431C130.537 23.0404 130.757 23.3382 130.976 23.6365C131.125 23.8291 131.26 24.0246 131.397 24.2157C131.6 24.5053 131.796 24.7877 131.987 25.0744C132.03 25.1297 132.068 25.1873 132.103 25.2467C132.282 25.5161 132.464 25.784 132.632 26.0576L132.977 26.605C133.512 27.4642 134.015 28.3378 134.485 29.226C134.672 29.5576 134.846 29.8935 135.015 30.2295C135.064 30.3352 135.118 30.4409 135.168 30.5466C135.343 30.8927 135.512 31.2373 135.663 31.5877C135.684 31.6312 135.707 31.679 135.728 31.7224C135.915 32.1206 136.09 32.5188 136.264 32.9228C136.281 32.9561 136.292 32.9894 136.309 33.0242C136.396 33.2255 136.484 33.4268 136.56 33.6338C136.696 33.9698 136.833 34.3101 136.963 34.6475C137.094 34.9848 137.221 35.3295 137.346 35.6741C137.445 35.9478 137.537 36.2215 137.63 36.4952C137.795 36.9614 137.936 37.4263 138.078 37.8969C138.149 38.1315 138.22 38.3675 138.281 38.6079C138.368 38.9062 138.446 39.203 138.527 39.5057C138.63 39.885 138.723 40.2688 138.81 40.6525C138.909 41.0652 139.001 41.4822 139.084 41.9007C139.143 42.1976 139.204 42.4959 139.249 42.7985C139.358 43.3777 139.457 43.97 139.539 44.5608C139.593 44.9402 139.643 45.3239 139.686 45.7076C139.729 46.0581 139.762 46.4128 139.795 46.7691C139.811 46.9139 139.823 47.0471 139.832 47.1919C139.861 47.5278 139.887 47.8681 139.903 48.2055C139.906 48.247 139.906 48.2886 139.903 48.33C139.92 48.5849 139.931 48.8383 139.941 49.0932C139.953 49.3191 139.958 49.5493 139.963 49.7795C139.974 50.1546 139.979 50.5325 139.979 50.9119C139.979 51.2913 139.979 51.6939 139.963 52.0834C139.963 52.2412 139.963 52.4049 139.946 52.5627C139.935 52.8697 139.925 53.1767 139.903 53.4837V53.5705C139.875 53.9731 139.849 54.3814 139.816 54.7796C139.816 54.8043 139.816 54.8318 139.804 54.8564C139.771 55.2792 139.729 55.7006 139.679 56.1191C139.635 56.4941 139.587 56.8677 139.537 57.237C139.482 57.6308 139.422 58.0199 139.358 58.4041C139.325 58.5866 139.298 58.769 139.259 58.9471C139.216 59.2063 139.166 59.4655 139.112 59.7204C139.019 60.2098 138.915 60.6925 138.8 61.1684C138.713 61.558 138.614 61.946 138.517 62.3269C138.419 62.7077 138.314 63.0755 138.205 63.4448C138.156 63.6229 138.106 63.8053 138.04 63.982C137.974 64.2079 137.908 64.428 137.832 64.6539C137.799 64.7697 137.762 64.8841 137.724 64.9942C137.647 65.2345 137.565 65.4759 137.478 65.7182C137.419 65.905 137.358 66.0874 137.287 66.2757C137.036 66.9867 136.762 67.6875 136.472 68.3783C136.34 68.6896 136.21 69.0024 136.073 69.3093C135.991 69.5019 135.908 69.6931 135.816 69.8799C135.58 70.3881 135.341 70.8935 135.089 71.3916C135.001 71.5741 134.909 71.7565 134.815 71.9347C134.777 72.0071 134.744 72.0795 134.706 72.1461C134.559 72.4357 134.406 72.7079 134.253 72.9859C134.078 73.3117 133.898 73.6289 133.712 73.9503C133.455 74.3847 133.193 74.8336 132.925 75.2652C132.779 75.5055 132.625 75.7445 132.467 75.9805C132.122 76.5235 131.761 77.0607 131.385 77.5893C131.211 77.8441 131.031 78.0932 130.85 78.3423C130.668 78.5913 130.5 78.8172 130.319 79.0533C130.137 79.2893 129.989 79.4877 129.824 79.7063C129.164 80.5462 128.481 81.3667 127.774 82.168C127.545 82.4277 127.309 82.6869 127.069 82.9456C126.894 83.1382 126.719 83.3293 126.533 83.5161C126.309 83.7565 126.074 83.9954 125.839 84.2401C125.56 84.5298 125.27 84.8121 124.975 85.0945C124.679 85.3769 124.389 85.6607 124.089 85.9344C123.865 86.1414 123.646 86.3427 123.416 86.544C123.356 86.6019 123.296 86.6545 123.237 86.7018C123.073 86.8553 122.908 87.0001 122.742 87.1362C122.589 87.281 122.435 87.4056 122.282 87.5345C122.086 87.7024 121.888 87.8661 121.692 88.0297C120.833 88.7402 119.954 89.4266 119.054 90.0888C118.796 90.2756 118.534 90.4639 118.272 90.6463C118.01 90.8288 117.758 91.0112 117.495 91.1835C117.403 91.2502 117.309 91.3139 117.217 91.3761C116.971 91.5398 116.722 91.7019 116.478 91.8612C115.866 92.2594 115.243 92.6533 114.608 93.0327L114.067 93.3498C113.817 93.4946 113.573 93.6394 113.307 93.7842L113.182 93.8566C112.898 94.0145 112.608 94.1737 112.318 94.3272C110.968 95.0619 109.581 95.7434 108.158 96.3719C107.841 96.5167 107.518 96.6615 107.197 96.7889C106.934 96.9048 106.672 97.0148 106.403 97.1205C106.168 97.2219 105.934 97.3131 105.693 97.4101C104.812 97.7562 103.917 98.0864 103.008 98.3948C102.702 98.5005 102.402 98.6019 102.09 98.6975C101.97 98.7409 101.849 98.7785 101.729 98.8176C101.351 98.9378 100.969 99.058 100.586 99.1681C100.138 99.3027 99.6844 99.4316 99.231 99.5561C99.2029 99.5663 99.1765 99.5706 99.1436 99.5808C98.7231 99.6966 98.2911 99.8067 97.864 99.9124C97.498 100.004 97.132 100.095 96.7659 100.176L96.1261 100.321C95.7865 100.397 95.4435 100.466 95.0989 100.536C95.0874 100.536 95.0775 100.536 95.0659 100.547C94.6174 100.637 94.164 100.724 93.7056 100.806C93.6864 100.811 93.6665 100.815 93.6463 100.816C93.2308 100.893 92.8103 100.961 92.3898 101.027C92.1376 101.071 91.8952 101.108 91.6412 101.143C90.9817 101.245 90.3123 101.33 89.6412 101.407C89.351 101.44 89.0674 101.473 88.7772 101.498C88.4375 101.537 88.0945 101.57 87.7549 101.599C87.3394 101.638 86.9304 101.666 86.5083 101.695C86.4614 101.701 86.414 101.704 86.3665 101.705C85.9082 101.738 85.4366 101.763 84.9733 101.782C84.5858 101.801 84.1917 101.815 83.8042 101.825C83.6245 101.825 83.4431 101.835 83.2634 101.835C82.8429 101.845 82.4159 101.85 81.9905 101.85L24 101.873Z" fill="#0D323D"/>
<path d="M139.992 50.5965C139.992 50.3807 139.992 50.162 139.992 49.9535C139.992 49.8768 139.992 49.8087 139.992 49.7276L139.976 49.2237C139.976 49.1904 139.976 49.1614 139.976 49.1281C139.976 49.0224 139.964 48.9124 139.959 48.8067C139.959 48.6344 139.948 48.4664 139.938 48.2926C139.938 48.2115 139.927 48.129 139.917 48.0479C139.917 48.0001 139.917 47.9465 139.917 47.9031C139.917 47.8597 139.917 47.7974 139.905 47.7496C139.894 47.5483 139.877 47.3514 139.862 47.1545C139.865 47.1435 139.865 47.1321 139.862 47.1212C139.865 47.0956 139.865 47.0699 139.862 47.0444C139.851 46.9343 139.841 46.8286 139.829 46.7186C139.813 46.5361 139.796 46.3493 139.775 46.1669C139.763 46.0612 139.753 45.9511 139.742 45.8454C139.73 45.7397 139.725 45.6673 139.709 45.5819V45.5486L139.692 45.4182C139.671 45.2503 139.654 45.0823 139.626 44.9143C139.626 44.8622 139.61 44.8043 139.605 44.7464L139.572 44.5161C139.572 44.464 139.556 44.4104 139.551 44.3583C139.501 44.0513 139.458 43.7385 139.404 43.4315C139.376 43.278 139.349 43.1289 139.328 42.9754C139.326 42.9693 139.326 42.9627 139.328 42.9566C139.262 42.5815 139.191 42.2079 139.109 41.8387C139.092 41.7518 139.076 41.6707 139.054 41.5896L139.038 41.5172C139.01 41.3449 138.972 41.1711 138.929 40.9988C138.929 40.9843 138.929 40.9742 138.917 40.9597C138.906 40.9452 138.901 40.8873 138.896 40.854C138.88 40.7773 138.863 40.7092 138.847 40.6339L138.797 40.4471C138.786 40.4037 138.781 40.366 138.769 40.3226C138.736 40.1691 138.698 40.0156 138.654 39.8621C138.654 39.8331 138.637 39.81 138.632 39.781C138.604 39.6709 138.578 39.5551 138.55 39.445C138.533 39.3871 138.522 39.3292 138.505 39.2771C138.467 39.1323 138.429 38.9875 138.385 38.8543C138.385 38.8253 138.368 38.8021 138.363 38.7732C138.335 38.653 138.304 38.5386 138.271 38.4227C138.238 38.3069 138.217 38.2301 138.184 38.1331C138.134 37.9608 138.08 37.7827 138.019 37.6104C137.958 37.4381 137.91 37.26 137.854 37.0818C137.842 37.0529 137.837 37.0283 137.826 37.0008C137.722 36.6793 137.613 36.3622 137.496 36.045C137.489 36.0121 137.478 35.9801 137.463 35.9495C137.409 35.7858 137.354 35.628 137.288 35.4644C137.27 35.3972 137.247 35.3314 137.217 35.2674C137.163 35.1139 137.109 34.9605 137.053 34.807C136.96 34.5579 136.861 34.3132 136.762 34.067C136.713 33.9425 136.663 33.8179 136.609 33.692C136.6 33.6592 136.587 33.6272 136.571 33.5964C136.528 33.4762 136.479 33.3618 136.429 33.2503C136.38 33.1388 136.33 33.0157 136.276 32.8999C136.205 32.7276 136.129 32.5538 136.052 32.3858C136.014 32.2946 135.976 32.2077 135.931 32.1165C135.887 32.0253 135.855 31.9442 135.811 31.8573C135.729 31.6748 135.646 31.4924 135.56 31.3143C135.522 31.2332 135.484 31.1506 135.445 31.0739C135.424 31.0362 135.406 30.9975 135.391 30.958C135.362 30.9059 135.341 30.8523 135.315 30.8046C135.222 30.6178 135.128 30.4353 135.036 30.2471L135.02 30.2036C134.911 29.9966 134.807 29.7866 134.69 29.5795C134.69 29.5795 134.69 29.5694 134.678 29.5607C134.558 29.3305 134.437 29.1046 134.312 28.8787C134.312 28.875 134.311 28.8713 134.309 28.8681C134.307 28.8648 134.304 28.862 134.301 28.8598C134.203 28.6726 134.099 28.4853 133.989 28.298L133.76 27.8954C133.689 27.7752 133.623 27.6551 133.547 27.5349C133.41 27.2945 133.268 27.0556 133.12 26.8195C133.021 26.6617 132.929 26.5082 132.825 26.3533C132.799 26.3034 132.77 26.2551 132.737 26.2085C132.513 25.8435 132.279 25.4844 132.038 25.1282C131.946 24.9834 131.852 24.8545 131.76 24.7155C131.595 24.4853 131.43 24.2493 131.265 24.0248C131.204 23.9336 131.14 23.838 131.069 23.7468C130.998 23.6556 130.948 23.5745 130.883 23.4919V23.4818C130.675 23.1922 130.462 22.9026 130.243 22.6231C130.183 22.5464 130.122 22.4653 130.063 22.3885C124.742 15.4936 117.58 9.84823 109.201 5.94572C100.822 2.04322 91.4828 0.00242108 81.9987 0.00170898C81.5717 0.00170898 81.1463 0.00171208 80.7258 0.0161925C80.5461 0.0161925 80.3647 0.0161925 80.185 0.0263288C79.7975 0.0364652 79.4034 0.0509439 79.0159 0.0697685C78.551 0.0885931 78.081 0.113212 77.6227 0.146517C77.5752 0.147361 77.5279 0.150746 77.4809 0.156653C77.0604 0.185614 76.6564 0.214572 76.2343 0.252222C75.8946 0.281182 75.5517 0.314487 75.212 0.353584C74.9218 0.378201 74.6382 0.411506 74.348 0.444811C73.6753 0.521557 73.0092 0.608439 72.348 0.708354C72.0973 0.741659 71.8533 0.780759 71.5994 0.824201C71.1789 0.886467 70.7568 0.958869 70.3429 1.03562C70.3227 1.03668 70.3028 1.04009 70.2836 1.04575C69.8241 1.12684 69.3707 1.21324 68.9233 1.30495C68.9117 1.30495 68.9018 1.30495 68.8903 1.31509C68.5457 1.3817 68.2011 1.45989 67.8631 1.53085L67.2233 1.67565C66.8573 1.75674 66.4912 1.84797 66.1252 1.9392C65.6981 2.0449 65.2677 2.15496 64.8456 2.2708C64.8127 2.28094 64.7863 2.28528 64.7582 2.29541C64.3048 2.41995 63.8514 2.55027 63.4029 2.68494C63.0203 2.79499 62.6378 2.91518 62.2602 3.03537C62.1399 3.07302 62.0195 3.11212 61.8991 3.15556C61.5875 3.25113 61.2874 3.35249 60.9807 3.4582C60.0738 3.76518 59.1769 4.09679 58.2964 4.44287C58.0556 4.53844 57.8215 4.62967 57.5857 4.73248C57.3186 4.83819 57.0564 4.94824 56.7926 5.06408C56.4628 5.19875 56.1479 5.33776 55.8313 5.48112C54.41 6.10957 53.0233 6.79112 51.6712 7.52576C51.381 7.67925 51.0925 7.83709 50.8072 7.99637L50.6819 8.06878C50.4247 8.21358 50.1741 8.35839 49.9218 8.50319L49.381 8.82031C48.7462 9.1997 48.1245 9.59357 47.5112 9.99179C47.2655 10.1496 47.0165 10.3133 46.7725 10.4769C46.6801 10.5391 46.5861 10.6014 46.4938 10.6695C46.2316 10.8418 45.9744 11.0242 45.7172 11.2067C45.46 11.3891 45.1929 11.5759 44.9356 11.7627C44.0288 12.425 43.1494 13.1114 42.2975 13.8219C42.1012 13.9855 41.9034 14.1477 41.7072 14.3157C41.5538 14.4445 41.4005 14.5749 41.2471 14.7139C41.0938 14.8529 40.9174 14.9919 40.7525 15.1483C40.692 15.1965 40.6321 15.2492 40.5728 15.3061C40.3436 15.5074 40.1243 15.7087 39.9 15.9157C39.5999 16.1894 39.3048 16.4732 39.0146 16.7556C38.7244 17.038 38.4292 17.3218 38.1506 17.61C37.9148 17.8503 37.6807 18.0907 37.4564 18.334C37.2701 18.5208 37.0953 18.7134 36.9205 18.9045C36.6798 19.1632 36.4446 19.4224 36.2148 19.6821C35.5047 20.4834 34.8215 21.3039 34.1653 22.1438C34.0004 22.3596 33.8256 22.5782 33.6706 22.7969C33.5156 23.0155 33.3161 23.2675 33.1397 23.5079C32.9633 23.7482 32.7786 24.0074 32.6038 24.2608C32.2262 24.7894 31.8651 25.3266 31.5222 25.8696C31.3573 26.1042 31.2105 26.3446 31.0638 26.585C30.7967 27.0194 30.5328 27.4538 30.2773 27.8998C30.0909 28.2212 29.9112 28.5384 29.7364 28.8642C29.5831 29.1422 29.4298 29.4217 29.283 29.704C29.2451 29.7764 29.2121 29.8488 29.1742 29.9155C29.0818 30.0936 28.9879 30.276 28.9005 30.4585C28.6482 30.958 28.4058 31.462 28.1733 31.9702C28.0859 32.157 27.9985 32.3496 27.9161 32.5408C27.7792 32.8478 27.649 33.1605 27.5171 33.4719C27.2269 34.1626 26.9548 34.8634 26.7025 35.5744C26.6316 35.7612 26.5706 35.9437 26.5113 36.1319C26.4233 36.3723 26.3414 36.6136 26.2656 36.8559C26.2277 36.966 26.1897 37.0818 26.1568 37.1962C26.0809 37.4221 26.015 37.6422 25.949 37.8681C25.8896 38.0462 25.8402 38.2287 25.7841 38.4054C25.6753 38.7746 25.5714 39.1497 25.4725 39.5232C25.3736 39.8968 25.2763 40.2965 25.1889 40.6817C25.079 41.1644 24.9751 41.6471 24.8773 42.1297C24.8228 42.3846 24.7734 42.6438 24.7305 42.903C24.6926 43.0811 24.6645 43.2635 24.6316 43.446C24.5656 43.8321 24.5057 44.2212 24.4518 44.6131C24.4024 44.9824 24.3529 45.3574 24.31 45.731C24.2606 46.1481 24.2177 46.5709 24.1847 46.9937C24.1847 47.0183 24.1847 47.0458 24.1732 47.0705C24.1402 47.4687 24.1138 47.877 24.0858 48.2796V48.3665C24.0644 48.6735 24.0528 48.9804 24.0429 49.2874C24.0314 49.4453 24.0264 49.6089 24.0264 49.7667C24.0149 50.1562 24.0099 50.5487 24.0099 50.9382C24.0099 51.3277 24.0099 51.697 24.0264 52.0706C24.0264 52.3008 24.038 52.531 24.0479 52.7569C24.0594 53.0118 24.0693 53.2652 24.0858 53.5201C24.0831 53.5615 24.0831 53.6031 24.0858 53.6446C24.1023 53.9849 24.1303 54.3266 24.1567 54.6582C24.1682 54.803 24.1781 54.9478 24.1946 55.0811C24.2276 55.4358 24.2606 55.792 24.3034 56.1425C24.348 56.5262 24.3958 56.91 24.4502 57.2893C24.5326 57.8801 24.6299 58.4695 24.7404 59.0516C24.7899 59.3542 24.8492 59.6511 24.9053 59.9494C24.9877 60.3664 25.0801 60.7849 25.179 61.1976C25.2664 61.5813 25.3587 61.9651 25.4626 62.3445C25.5384 62.6471 25.6275 62.944 25.7083 63.2423C25.7676 63.4826 25.8402 63.7172 25.9111 63.9532C26.0529 64.4239 26.2013 64.8887 26.3596 65.355C26.4519 65.6286 26.5459 65.9023 26.6432 66.176C26.7685 66.5221 26.8938 66.8624 27.0257 67.2027C27.1576 67.5429 27.2928 67.8847 27.4297 68.2163C27.5055 68.4234 27.5946 68.6246 27.6803 68.8259C27.6968 68.8592 27.7083 68.8925 27.7248 68.9273C27.8996 69.3298 28.0744 69.7295 28.2607 70.1277C28.2821 70.1712 28.3052 70.2189 28.3267 70.2624C28.4916 70.6128 28.6564 70.9589 28.8213 71.3035C28.8708 71.4092 28.9252 71.5149 28.9747 71.6207C29.1396 71.9566 29.3193 72.2925 29.504 72.6241C29.9744 73.5123 30.4773 74.3859 31.0127 75.2451L31.3573 75.7925C31.5222 76.0662 31.7068 76.3355 31.8866 76.6034C31.921 76.6628 31.9595 76.7204 32.002 76.7757C32.1932 77.0653 32.3895 77.3549 32.5923 77.6344C32.7291 77.8313 32.866 78.0283 33.0127 78.2136C33.226 78.5109 33.4458 78.8088 33.6723 79.107C33.6937 79.1404 33.7217 79.1693 33.7481 79.2026C33.8569 79.3474 33.9674 79.4922 34.0779 79.637C34.2576 79.8716 34.439 80.1033 34.6303 80.3379L34.7506 80.4827C34.904 80.6695 35.0623 80.8621 35.2206 81.0489C35.3788 81.2357 35.5272 81.4138 35.6855 81.5962C36.1505 82.1393 36.6254 82.6721 37.1184 83.1891C37.2981 83.386 37.4844 83.583 37.6708 83.7683C38.0154 84.1231 38.36 84.4735 38.7145 84.8196C38.9173 85.0209 39.13 85.2279 39.3378 85.4249C39.4037 85.4915 39.4697 85.5538 39.5406 85.6175C39.7434 85.8101 39.9511 86.0055 40.1589 86.1967C41.1207 87.0752 42.1155 87.9199 43.1433 88.7308C43.4269 88.961 43.7171 89.1869 44.0073 89.407C44.0217 89.4204 44.0384 89.4316 44.0568 89.4403C44.2646 89.6039 44.4773 89.7618 44.6916 89.9153C44.906 90.0688 45.0906 90.2136 45.2984 90.3497C45.8936 90.7841 46.5004 91.1997 47.1121 91.6066C47.3083 91.7413 47.5112 91.8701 47.714 91.9961C47.9811 92.1742 48.2597 92.3465 48.5384 92.5189C48.8171 92.6912 49.0842 92.8591 49.3628 93.0228L49.7289 93.2385C50.0026 93.4022 50.2747 93.56 50.5533 93.7135C51.3294 94.1547 52.1164 94.5785 52.9145 94.9849C53.1717 95.1196 53.4339 95.2484 53.6911 95.3744C54.0077 95.5279 54.3259 95.6814 54.6425 95.8305C54.8222 95.9218 55.0085 96.0029 55.1949 96.0854C55.457 96.2099 55.7258 96.3301 55.9929 96.446C56.3425 96.6038 56.692 96.753 57.0482 96.8978C57.7528 97.1951 58.4635 97.4784 59.1802 97.7478L60.0046 98.0504C60.1299 98.0938 60.2503 98.1416 60.3756 98.1851C60.7053 98.3009 61.0351 98.411 61.3649 98.521C61.6947 98.6311 62.0426 98.7469 62.3822 98.8526C62.4088 98.8629 62.4364 98.8712 62.4647 98.8772C62.9956 99.0452 63.5298 99.203 64.0657 99.3522C64.3114 99.4289 64.5604 99.497 64.8094 99.568L64.9841 99.6114C65.121 99.6505 65.2628 99.6838 65.3997 99.7214C65.5794 99.7692 65.7608 99.817 65.9471 99.8663C66.2417 99.9435 66.5368 100.015 66.8325 100.082C66.9529 100.115 67.0732 100.144 67.1986 100.169C67.3239 100.194 67.4937 100.236 67.6421 100.27C67.7905 100.305 67.9372 100.333 68.084 100.366C68.0955 100.366 68.1054 100.366 68.117 100.376C68.2588 100.409 68.4006 100.438 68.544 100.467C68.7403 100.511 68.9381 100.548 69.1393 100.587C69.4344 100.65 69.7345 100.708 70.0297 100.755C70.0742 100.765 70.117 100.77 70.1616 100.78C70.2349 100.8 70.3099 100.814 70.3858 100.823C70.7156 100.886 71.0454 100.939 71.3751 100.991L71.4675 101.006C71.6802 101.044 71.9044 101.078 72.127 101.107C72.3496 101.136 72.6217 101.184 72.8657 101.217L73.1773 101.261C73.2697 101.275 73.3686 101.285 73.4609 101.298C73.7445 101.336 74.0347 101.371 74.3249 101.404C74.353 101.404 74.3859 101.404 74.4123 101.414C74.752 101.453 75.09 101.491 75.4346 101.52C75.5434 101.534 75.6539 101.545 75.7644 101.553C75.9722 101.578 76.1799 101.591 76.3877 101.605C76.6878 101.634 76.9944 101.657 77.3011 101.678C77.4809 101.697 77.6672 101.707 77.8535 101.715C78.1206 101.734 78.3943 101.749 78.668 101.759C78.8329 101.773 78.9978 101.778 79.1627 101.783C79.3985 101.798 79.6326 101.802 79.8684 101.808C80.0102 101.808 80.152 101.823 80.2955 101.823C80.4389 101.823 80.5791 101.833 80.7225 101.833C81.149 101.842 81.5755 101.847 82.002 101.847C82.4291 101.847 82.8496 101.847 83.275 101.833C83.5536 101.833 83.8372 101.823 84.1175 101.808C84.4473 101.808 84.7771 101.789 85.1068 101.775C85.5322 101.756 85.9643 101.731 86.3864 101.702C86.4193 101.702 86.4523 101.702 86.4853 101.702C86.9799 101.669 87.4466 101.63 87.928 101.587C88.36 101.549 88.792 101.505 89.2174 101.458C89.4796 101.429 89.7418 101.4 90.004 101.366C90.0699 101.366 90.1408 101.352 90.2068 101.342C90.3717 101.323 90.5365 101.304 90.7014 101.28C90.8663 101.255 90.9966 101.24 91.1433 101.217C91.2043 101.207 91.2686 101.203 91.3297 101.193C91.6413 101.149 91.9529 101.101 92.2645 101.048C92.7394 100.975 93.2159 100.894 93.6859 100.807C94.1558 100.721 94.6307 100.635 95.0956 100.538C95.5227 100.451 95.9481 100.36 96.3686 100.269C96.4345 100.25 96.5054 100.235 96.5714 100.221L96.6423 100.207C97.0578 100.111 97.4667 100.014 97.8773 99.9082C98.2483 99.8127 98.6258 99.7157 98.9985 99.6186C99.2656 99.5462 99.5393 99.4738 99.8081 99.3927C99.8396 99.3867 99.8704 99.3785 99.9004 99.3681L100.065 99.3203C100.219 99.2769 100.377 99.2335 100.53 99.1857C100.623 99.1611 100.717 99.1321 100.804 99.1046C101.144 99.0032 101.477 98.9033 101.81 98.7918L102.252 98.647C102.634 98.5225 103.017 98.3921 103.394 98.2633C103.427 98.2488 103.465 98.2386 103.498 98.2256C103.798 98.1243 104.1 98.0142 104.395 97.9041L104.669 97.8028C105.096 97.6449 105.511 97.4813 105.932 97.3177C107.6 96.6506 109.223 95.9194 110.803 95.1239C111.197 94.927 111.589 94.7257 111.978 94.5186C112.76 94.1059 113.525 93.6744 114.274 93.2327C114.453 93.1227 114.64 93.017 114.814 92.9069C114.989 92.7969 115.175 92.6912 115.35 92.5811C115.525 92.4711 115.733 92.3465 115.919 92.2264L116.509 91.8513C116.767 91.679 117.024 91.511 117.279 91.3372C117.317 91.3126 117.35 91.2895 117.388 91.2605C117.58 91.1316 117.771 91.0013 117.962 90.8666C118.191 90.7131 118.415 90.5495 118.64 90.3917C118.923 90.1846 119.209 89.979 119.487 89.7676C119.914 89.4562 120.335 89.1333 120.744 88.8075C120.76 88.793 120.782 88.7786 120.798 88.7641C121.001 88.6062 121.197 88.447 121.393 88.2833C121.547 88.1631 121.7 88.0386 121.847 87.9141L121.863 87.8996C122.083 87.7171 122.3 87.5347 122.513 87.3479C122.595 87.2813 122.666 87.219 122.737 87.1553L122.754 87.1408C122.989 86.9395 123.219 86.7383 123.443 86.5312L123.459 86.5167C123.547 86.4443 123.624 86.3719 123.71 86.2908L124.333 85.7116C124.404 85.6493 124.475 85.5827 124.546 85.5147C124.546 85.5147 124.557 85.5045 124.562 85.4958C124.573 85.4874 124.583 85.4777 124.59 85.4669C124.732 85.3322 124.874 85.1975 125.011 85.0643C125.148 84.9311 125.311 84.7747 125.459 84.6299C125.459 84.6299 125.471 84.6299 125.471 84.6198C125.471 84.6096 125.499 84.5952 125.509 84.5807C125.722 84.3693 125.929 84.1578 126.144 83.9421C126.182 83.8986 126.226 83.861 126.264 83.8176C126.302 83.7741 126.356 83.722 126.401 83.6727C126.538 83.5279 126.68 83.3831 126.811 83.2383C126.943 83.0935 127.085 82.9487 127.215 82.8039C127.499 82.4926 127.779 82.1798 128.051 81.8627C128.323 81.5456 128.604 81.2284 128.866 80.907C129.102 80.629 129.331 80.3451 129.56 80.057C129.626 79.9759 129.692 79.889 129.763 79.8079C129.807 79.75 129.85 79.6979 129.888 79.6399C130.03 79.4575 130.172 79.2707 130.315 79.0882C130.343 79.0549 130.365 79.0216 130.391 78.9869C130.418 78.9521 130.441 78.9145 130.467 78.8812C130.686 78.5915 130.899 78.3019 131.107 78.0123C131.14 77.9689 131.166 77.9255 131.199 77.8835L131.221 77.8502C131.445 77.5432 131.657 77.2362 131.865 76.9234C132.094 76.5831 132.324 76.237 132.548 75.8866C132.772 75.5362 132.991 75.1901 133.207 74.8353C133.339 74.6196 133.465 74.4009 133.595 74.1866C133.725 73.9723 133.846 73.7522 133.966 73.5335C134.217 73.0991 134.461 72.6546 134.688 72.2129C134.808 71.9928 134.924 71.7669 135.033 71.5453C135.142 71.3238 135.257 71.0936 135.362 70.8691C135.417 70.7634 135.466 70.6577 135.527 70.552C135.54 70.5193 135.555 70.4874 135.572 70.4564C135.654 70.2841 135.737 70.1103 135.813 69.9337C135.83 69.9027 135.845 69.8708 135.857 69.8381C135.956 69.6267 136.048 69.4037 136.141 69.1995C136.288 68.8684 136.43 68.5373 136.568 68.2062C136.705 67.875 136.831 67.5584 136.945 67.2562C137.087 66.8913 137.224 66.5322 137.356 66.1572C137.372 66.1137 137.389 66.0659 137.405 66.0124C137.537 65.6373 137.668 65.2637 137.788 64.8843C137.875 64.6107 137.953 64.3413 138.039 64.0676C138.094 63.9045 138.142 63.7413 138.185 63.5782C138.256 63.3291 138.327 63.0786 138.393 62.8296C138.447 62.637 138.497 62.4458 138.546 62.2503C138.562 62.2027 138.575 62.1544 138.584 62.1055C138.667 61.8072 138.738 61.506 138.809 61.2034C138.811 61.1924 138.811 61.1811 138.809 61.1701C138.82 61.1223 138.83 61.0687 138.842 61.0253C138.924 60.7038 138.99 60.3824 139.054 60.0551C139.064 60.0218 139.071 59.9879 139.076 59.9537C139.087 59.9103 139.092 59.8625 139.104 59.8191C139.17 59.5164 139.224 59.2094 139.279 58.9025C139.29 58.8402 139.3 58.7823 139.312 58.72C139.34 58.5752 139.361 58.442 139.382 58.303L139.399 58.2016C139.453 57.87 139.503 57.5442 139.552 57.2126C139.602 56.881 139.645 56.5306 139.684 56.1903C139.691 56.1475 139.695 56.1045 139.696 56.0614C139.734 55.7496 139.767 55.4378 139.795 55.1259C139.795 55.0593 139.806 54.9971 139.811 54.929C139.823 54.8233 139.833 54.7133 139.839 54.6075V54.5974C139.872 54.247 139.894 53.8966 139.915 53.5418C139.931 53.2348 139.948 52.9278 139.958 52.615V52.5571C139.969 52.3414 139.974 52.1343 139.979 51.9185V51.8374C139.979 51.5304 139.991 51.2278 139.991 50.9208C139.997 50.8224 139.997 50.7109 139.992 50.5965ZM102.374 50.9368C102.374 55.6825 100.227 60.234 96.4061 63.5899C92.5851 66.9458 87.4027 68.8313 81.9987 68.8317C80.8382 68.8334 79.6796 68.7467 78.5361 68.5725C78.4042 68.5537 78.274 68.5334 78.1421 68.5102C77.9772 68.4856 77.8123 68.4581 77.6672 68.4292L77.2302 68.3423C76.7905 68.2457 76.3585 68.14 75.9342 68.0251C75.7693 67.9817 75.6177 67.9383 75.4594 67.8905C73.9458 67.439 72.4976 66.8334 71.1443 66.0862C71.0404 66.0283 70.9415 65.9704 70.8442 65.9139C70.6249 65.7894 70.4122 65.6648 70.2044 65.5302C70.0725 65.4534 69.9472 65.3723 69.8219 65.2854C69.1201 64.827 68.4536 64.3282 67.8268 63.7925C67.7443 63.7259 67.6619 63.6578 67.591 63.5912C66.6347 62.751 65.7758 61.8293 65.027 60.8399C64.9677 60.7675 64.9116 60.6951 64.8621 60.614C64.8341 60.5764 64.8077 60.5416 64.7797 60.504C64.7088 60.4084 64.6428 60.3114 64.5769 60.2144C64.5109 60.1174 64.468 60.0565 64.412 59.974C63.5759 58.7227 62.917 57.3864 62.4498 55.9948C62.3674 55.7544 62.2965 55.5097 62.2256 55.2606C62.1877 55.126 62.1497 54.9913 62.1168 54.8581C62.0838 54.7248 62.0459 54.5598 62.0079 54.4063C61.9799 54.2861 61.9585 54.1616 61.9321 54.037C61.8563 53.6533 61.7952 53.2638 61.7458 52.8699C61.7458 52.8409 61.7458 52.812 61.7342 52.783C61.662 52.1691 61.6257 51.5524 61.6254 50.9353C61.6249 46.2687 63.7002 41.7866 67.4088 38.4445C71.1173 35.1024 76.1657 33.1648 81.4777 33.0447C81.5651 33.0447 81.6525 33.0447 81.7399 33.0447H102.374V50.9368Z" fill="url(#paint0_linear_38_782)"/>
<path d="M139.997 0.00170898C140.01 8.30016 136.453 16.2965 130.038 22.39C129.073 23.3138 128.047 24.1875 126.966 25.0066C120.137 30.1968 111.405 33.0497 102.374 33.0418H81.7364C81.649 33.0418 81.5616 33.0418 81.4743 33.0418C75.7306 33.0634 70.0608 34.1805 64.8571 36.3158C64.3426 36.5171 63.8397 36.7387 63.3434 36.9645C56.8381 39.926 51.3848 44.4007 47.5793 49.8997C43.7737 55.3987 41.7623 61.7104 41.7647 68.1453C41.7647 68.3756 41.7647 68.6015 41.7763 68.8317C41.8048 70.3438 41.9474 71.8526 42.2034 73.3482C42.7172 76.3987 43.6915 79.3755 45.1004 82.2001C45.3576 82.7136 45.6324 83.2224 45.9248 83.7263C46.0337 83.9334 46.1491 84.1347 46.2744 84.3316C46.558 84.8254 46.8647 85.3105 47.1813 85.7912C50.8366 91.2957 56.1214 95.8279 62.4744 98.9062C62.4462 98.9001 62.4186 98.8919 62.392 98.8816C62.0523 98.7759 61.7094 98.6658 61.3747 98.55C61.0399 98.4341 60.7151 98.3299 60.3853 98.214C60.26 98.1706 60.1397 98.1228 60.0143 98.0794L59.1899 97.7767C58.4743 97.5074 57.7636 97.224 57.0579 96.9267C56.7034 96.7819 56.3522 96.6371 56.0027 96.4749C55.7355 96.3591 55.4668 96.2403 55.2046 96.1143C55.0183 96.0333 54.8336 95.9507 54.6522 95.8595C54.3357 95.7147 54.0174 95.5569 53.7008 95.4034C53.4436 95.2788 53.1815 95.1485 52.9242 95.0138C52.1262 94.6055 51.3391 94.1817 50.5631 93.7425C50.2844 93.589 50.0107 93.4297 49.7386 93.2675L49.3726 93.0517C49.0939 92.8881 48.8202 92.7201 48.5482 92.5478C48.2761 92.3755 47.9958 92.2017 47.7237 92.0251C47.5209 91.9005 47.3198 91.7702 47.1219 91.6355C46.5036 91.2272 45.8968 90.8058 45.3082 90.3786C45.1004 90.2338 44.8976 90.089 44.7014 89.9442C44.5052 89.7994 44.2743 89.6329 44.0666 89.4693C44.0481 89.4606 44.0314 89.4493 44.0171 89.436C43.7269 89.2159 43.4383 88.99 43.1531 88.7597C42.1253 87.9488 41.1305 87.1041 40.1687 86.2256C39.9609 86.0388 39.7531 85.8419 39.5503 85.6464C39.4794 85.5842 39.4135 85.5219 39.3475 85.4538C39.1398 85.2569 38.9271 85.0513 38.7243 84.8485C38.3697 84.5025 38.0251 84.152 37.6805 83.7973C37.4942 83.6047 37.3095 83.4077 37.1282 83.2181C36.6335 82.6953 36.1603 82.1624 35.6953 81.6252C35.5304 81.4427 35.3837 81.2603 35.2303 81.0778C35.077 80.8954 34.9137 80.6984 34.7604 80.5117L34.64 80.3668C34.4488 80.1323 34.269 79.902 34.0877 79.666C33.9722 79.5212 33.8634 79.3764 33.7579 79.2316C33.7299 79.1983 33.7035 79.1693 33.682 79.136C33.4622 78.8387 33.2423 78.5409 33.0225 78.2426C32.8741 78.05 32.7389 77.853 32.602 77.6633C32.3992 77.3737 32.203 77.0928 32.0117 76.8046C31.9693 76.7493 31.9307 76.6918 31.8963 76.6323C31.7166 76.363 31.5352 76.0951 31.367 75.8214L31.0224 75.2741C30.4871 74.4149 29.9842 73.5412 29.5137 72.6531C29.3274 72.3215 29.1526 71.9856 28.9844 71.6496C28.935 71.5439 28.8806 71.4382 28.8311 71.3325C28.6563 70.9864 28.4865 70.6418 28.3364 70.2913C28.315 70.2479 28.2919 70.2001 28.2705 70.1567C28.0842 69.7585 27.9094 69.3602 27.7346 68.9562C27.7181 68.9229 27.7066 68.8896 27.6901 68.8549C27.6027 68.6536 27.5153 68.4523 27.4394 68.2452C27.3026 67.9093 27.1657 67.569 27.0355 67.2316C26.9052 66.8942 26.7783 66.5496 26.6529 66.205C26.554 65.9313 26.4617 65.6576 26.3693 65.3839C26.2045 64.9176 26.0627 64.4528 25.9209 63.9822C25.8499 63.7476 25.779 63.5116 25.718 63.2712C25.6306 62.9729 25.5532 62.6761 25.4724 62.3734C25.3685 61.994 25.2761 61.6103 25.1888 61.2266C25.0898 60.8139 24.9975 60.3954 24.915 59.9783C24.8557 59.68 24.7947 59.3832 24.7502 59.0806C24.6413 58.5013 24.5424 57.9091 24.46 57.3183C24.4055 56.9389 24.3561 56.5552 24.3132 56.1714C24.2703 55.821 24.2374 55.4662 24.2044 55.11C24.1879 54.9652 24.1764 54.832 24.1665 54.6872C24.1384 54.3512 24.112 54.011 24.0956 53.6736C24.0929 53.6321 24.0929 53.5905 24.0956 53.549C24.0791 53.2942 24.0675 53.0408 24.0576 52.7859C24.0461 52.56 24.0411 52.3298 24.0362 52.0995C24.0247 51.7245 24.0197 51.3465 24.0197 50.9672C24.0197 50.5878 24.0197 50.1852 24.0362 49.7957C24.0362 49.6379 24.0362 49.4742 24.0527 49.3164C24.0642 49.0094 24.0741 48.7024 24.0956 48.3954V48.3085C24.1236 47.906 24.15 47.4976 24.1829 47.0994C24.1829 47.0748 24.1829 47.0473 24.1945 47.0227C24.2275 46.5998 24.2703 46.1785 24.3198 45.76C24.3643 45.3849 24.4121 45.0113 24.4616 44.6421C24.5166 44.2482 24.5765 43.8592 24.6413 43.475C24.6743 43.2925 24.7007 43.1101 24.7403 42.9319C24.7831 42.6727 24.8326 42.4135 24.887 42.1587C24.9793 41.6692 25.0832 41.1866 25.1987 40.7106C25.286 40.3211 25.385 39.933 25.4822 39.5522C25.5795 39.1714 25.6851 38.8036 25.7939 38.4343C25.8434 38.2562 25.8928 38.0737 25.9588 37.8971C26.0247 37.6712 26.0907 37.4511 26.1665 37.2252C26.1995 37.1094 26.2374 36.995 26.2754 36.8849C26.3523 36.6445 26.4342 36.4032 26.521 36.1609C26.5804 35.9741 26.6414 35.7916 26.7123 35.6034C26.9629 34.8924 27.2366 34.1915 27.5268 33.5008C27.6587 33.1895 27.789 32.8767 27.9259 32.5697C28.0083 32.3771 28.0907 32.186 28.1831 31.9992C28.4189 31.4909 28.658 30.9856 28.9102 30.4874C28.9976 30.305 29.09 30.1225 29.1839 29.9444C29.2219 29.872 29.2548 29.7996 29.2928 29.733C29.4395 29.4434 29.5929 29.1712 29.7462 28.8931C29.921 28.5673 30.1007 28.2502 30.287 27.9287C30.5443 27.4943 30.8064 27.0454 31.0735 26.6139C31.2203 26.3735 31.3736 26.1332 31.5319 25.8986C31.8765 25.3556 32.2376 24.8183 32.6136 24.2898C32.7884 24.0349 32.9681 23.7859 33.1495 23.5368C33.3308 23.2877 33.499 23.0619 33.6804 22.8258C33.8618 22.5898 34.0102 22.3914 34.175 22.1728C34.8346 21.3329 35.5178 20.5123 36.2246 19.7111C36.4543 19.4524 36.6896 19.1932 36.9303 18.9335C37.1051 18.7409 37.2799 18.5497 37.4662 18.3629C37.6904 18.1226 37.9262 17.8822 38.1603 17.6389C38.439 17.3493 38.7292 17.0684 39.0243 16.7846C39.3195 16.5008 39.6097 16.2184 39.9098 15.9447C40.134 15.7376 40.3533 15.5364 40.5825 15.3351C40.643 15.2772 40.7029 15.2245 40.7622 15.1772C40.926 15.0237 41.0909 14.8789 41.2569 14.7428C41.4102 14.598 41.5636 14.4735 41.7169 14.3446C41.9131 14.1766 42.111 14.013 42.3072 13.8508C43.1657 13.1403 44.0451 12.4539 44.9454 11.7917C45.2026 11.6049 45.4648 11.4167 45.727 11.2357C45.9891 11.0546 46.2414 10.8707 46.5036 10.6984C46.5959 10.6318 46.6899 10.5696 46.7822 10.5058C47.0279 10.3422 47.2769 10.18 47.5209 10.0207C48.1327 9.62253 48.7559 9.22866 49.3907 8.84927L49.9316 8.53215C50.1822 8.38735 50.4262 8.24254 50.6917 8.09774L50.817 8.02534C51.1006 7.8675 51.3908 7.70821 51.681 7.55472C53.0309 6.82008 54.4176 6.13853 55.8411 5.51008C56.1577 5.36527 56.4808 5.22047 56.8024 5.09304C57.0645 4.9772 57.3267 4.86714 57.5955 4.76144C57.8312 4.66007 58.0654 4.56885 58.3061 4.47183C59.1866 4.12575 60.0819 3.79559 60.9905 3.48716C61.2972 3.38145 61.5972 3.28009 61.9089 3.18452C62.0293 3.14108 62.1496 3.10343 62.27 3.06433C62.6476 2.94414 63.0301 2.82395 63.4127 2.7139C63.8611 2.57923 64.3146 2.45036 64.768 2.32438C64.796 2.31424 64.8224 2.3099 64.8554 2.29976C65.2759 2.18392 65.7079 2.07387 66.1349 1.96816C66.501 1.87693 66.867 1.7857 67.2331 1.70461L67.8728 1.55981C68.2125 1.48306 68.5554 1.41501 68.9001 1.34405C68.9116 1.34405 68.9215 1.34405 68.933 1.33391C69.3815 1.24317 69.835 1.15677 70.2933 1.07471C70.3125 1.06905 70.3325 1.06564 70.3527 1.06458C70.7682 0.98783 71.1887 0.919772 71.6091 0.853162C71.8598 0.809721 72.1038 0.772069 72.3577 0.737316C73.0173 0.635953 73.6867 0.550519 74.3578 0.473772C74.648 0.440467 74.9316 0.407163 75.2218 0.382546C75.5614 0.343449 75.9044 0.310144 76.2441 0.281183C76.6596 0.242086 77.0685 0.21457 77.4906 0.185609C77.5376 0.179705 77.585 0.17632 77.6324 0.175473C78.0908 0.142168 78.5624 0.117555 79.0257 0.0987301C79.4132 0.0799054 79.8073 0.0654212 80.1947 0.0552849C80.3745 0.0552849 80.5558 0.0451486 80.7356 0.0451486C81.156 0.0350123 81.5831 0.0306706 82.0085 0.0306706L139.997 0.00170898Z" fill="url(#paint1_linear_38_782)"/>
<path opacity="0.1" d="M64.0771 99.3853C64.7004 99.5678 65.3236 99.7359 65.9568 99.8939C65.3154 99.7403 64.7004 99.5722 64.0771 99.3853Z" fill="url(#paint2_linear_38_782)"/>
<path d="M139.992 50.5962C139.939 56.5898 138.089 62.4654 134.63 67.6324C131.179 72.8197 126.24 77.1221 120.306 80.111C114.371 83.0998 107.648 84.6708 100.807 84.6672C92.189 84.6697 83.8103 82.1758 76.9697 77.5718C73.5456 75.2615 70.5766 72.4731 68.1813 69.3179C68.0609 69.1601 67.9406 68.9965 67.8202 68.8328C66.6843 67.2808 65.6919 65.6514 64.8523 63.9602C63.1098 60.4444 62.0567 56.6951 61.7375 52.871C61.787 53.2649 61.8464 53.653 61.9239 54.0381C61.9519 54.1627 61.9733 54.2872 61.9997 54.4074C62.0376 54.5609 62.0706 54.7101 62.1086 54.8592C62.1465 55.0084 62.1795 55.1285 62.2174 55.2617C62.2883 55.5108 62.3592 55.7556 62.4416 55.9959C62.9088 57.3875 63.5677 58.7238 64.4038 59.9751C64.4582 60.0562 64.5126 60.1388 64.5687 60.2155C64.6247 60.2923 64.6989 60.4081 64.7714 60.5051C64.7995 60.5442 64.8259 60.5775 64.8539 60.6152C64.9083 60.6876 64.9627 60.76 65.0188 60.8353C65.7676 61.8247 66.6265 62.7463 67.5828 63.5865C67.6586 63.6532 67.7361 63.7212 67.8186 63.7878C68.4454 64.3235 69.1119 64.8223 69.8137 65.2808C69.939 65.3677 70.0709 65.4488 70.1962 65.5255C70.404 65.6602 70.6167 65.7847 70.836 65.9092C70.9349 65.9671 71.0322 66.0251 71.1361 66.0816C72.4903 66.8295 73.9396 67.4355 75.4544 67.8872C75.6193 67.935 75.771 67.9785 75.9293 68.0219C76.3558 68.1368 76.7878 68.2425 77.2253 68.3391L77.6622 68.4259C77.8156 68.4549 77.9739 68.4839 78.1371 68.507C78.2691 68.5316 78.3993 68.5505 78.5312 68.5693C79.6747 68.7435 80.8332 68.8302 81.9938 68.8285C87.398 68.8285 92.5809 66.9431 96.4023 63.5872C100.224 60.2312 102.37 55.6796 102.37 50.9335V33.0415C111.401 33.0491 120.133 30.1961 126.962 25.0063C128.042 24.1872 129.068 23.3135 130.033 22.3896C130.093 22.4664 130.154 22.5475 130.213 22.6242C130.432 22.9138 130.645 23.1947 130.853 23.4829C130.853 23.4829 130.853 23.4829 130.853 23.4931C130.919 23.5741 130.978 23.661 131.039 23.7479C131.1 23.8348 131.176 23.9347 131.235 24.0259C131.4 24.2518 131.565 24.4864 131.73 24.7167C131.822 24.8615 131.916 24.9903 132.009 25.1293C132.245 25.4841 132.479 25.8447 132.708 26.2096C132.74 26.2562 132.77 26.3046 132.795 26.3544C132.899 26.5079 132.991 26.6614 133.09 26.8207C133.239 27.0553 133.381 27.2956 133.517 27.536C133.593 27.6562 133.659 27.7764 133.73 27.8966L133.959 28.2991C134.069 28.4864 134.173 28.6737 134.271 28.861C134.274 28.8631 134.277 28.866 134.279 28.8692C134.281 28.8725 134.282 28.8761 134.282 28.8798C134.408 29.1057 134.528 29.3316 134.649 29.5618C134.649 29.572 134.66 29.5763 134.66 29.5806C134.719 29.6863 134.775 29.7877 134.825 29.892C134.874 29.9962 134.934 30.099 134.99 30.2033C135.089 30.4046 135.186 30.6015 135.285 30.8028C135.313 30.8506 135.334 30.9042 135.361 30.9563C135.387 31.0084 135.399 31.033 135.415 31.0721C135.453 31.1489 135.491 31.23 135.531 31.3125C135.597 31.4472 135.656 31.5761 135.722 31.7107L135.902 32.1133C135.946 32.2045 135.984 32.2914 136.022 32.3826C136.098 32.5506 136.175 32.7229 136.246 32.8967C136.301 33.0125 136.35 33.1269 136.4 33.2471C136.449 33.3673 136.499 33.473 136.541 33.5932C136.557 33.624 136.57 33.6559 136.579 33.6887C136.634 33.8089 136.683 33.9378 136.733 34.0638C136.832 34.3085 136.929 34.5532 137.023 34.8037C137.082 34.9486 137.138 35.1064 137.188 35.2642C137.217 35.3282 137.241 35.394 137.259 35.4612C137.318 35.6248 137.379 35.7826 137.433 35.9463C137.449 35.9769 137.46 36.009 137.466 36.0418C137.575 36.359 137.686 36.6761 137.796 36.9975C137.807 37.0241 137.816 37.0511 137.823 37.0786C137.877 37.2567 137.938 37.4291 137.987 37.6072C138.037 37.7853 138.096 37.9576 138.152 38.1299C138.185 38.2255 138.212 38.3225 138.24 38.4195C138.316 38.6889 138.393 38.9568 138.464 39.2304C138.464 39.2449 138.464 39.2594 138.476 39.2739C138.492 39.3275 138.504 39.3839 138.52 39.4418C138.579 39.6619 138.64 39.8878 138.685 40.1137C138.701 40.1803 138.718 40.2585 138.734 40.3208C138.762 40.4265 138.789 40.5279 138.81 40.6321C138.827 40.7045 138.843 40.7769 138.86 40.8522L138.893 40.9971C138.914 41.0781 138.931 41.1607 138.954 41.2417C138.954 41.2519 138.954 41.2606 138.954 41.2751C138.992 41.4619 139.036 41.6501 139.069 41.8369C139.152 42.2062 139.222 42.5812 139.288 42.9548L139.371 43.4298C139.425 43.7367 139.47 44.0495 139.519 44.3565C139.519 44.4086 139.536 44.4622 139.541 44.5143L139.574 44.7446C139.574 44.8025 139.59 44.8604 139.595 44.9125L139.661 45.4165L139.678 45.5468V45.57C139.689 45.6612 139.699 45.7481 139.711 45.8335C139.722 45.9436 139.732 46.0493 139.743 46.155C139.765 46.3374 139.781 46.5242 139.798 46.7067C139.809 46.8167 139.819 46.9225 139.831 47.0325C139.831 47.0571 139.831 47.0846 139.831 47.1092C139.834 47.1202 139.834 47.1316 139.831 47.1425C139.847 47.3395 139.864 47.5364 139.874 47.7377C139.874 47.7855 139.885 47.8391 139.885 47.8912C139.897 48.0201 139.907 48.1504 139.913 48.2851C139.916 48.3299 139.916 48.3748 139.913 48.4197C139.925 48.5442 139.925 48.6688 139.93 48.7991C139.93 48.9048 139.941 49.0149 139.946 49.1206C139.946 49.1539 139.946 49.1829 139.946 49.2162C139.946 49.2929 139.946 49.374 139.946 49.4507C139.946 49.5275 139.958 49.6288 139.958 49.7201C139.958 49.8113 139.958 49.8649 139.958 49.946C139.988 50.1632 139.992 50.3804 139.992 50.5962Z" fill="#0D323D"/>
<path opacity="0.1" d="M139.997 50.9368C139.997 64.4456 133.887 77.4011 123.01 86.9533C112.133 96.5054 97.3809 101.872 81.9987 101.872C66.6165 101.872 51.8643 96.5054 40.9874 86.9533C30.1106 77.4011 24 64.4456 24 50.9368C24 50.1968 24.0165 49.4684 24.0544 48.7386C24.5167 57.7764 27.9618 66.501 33.9701 73.8498C39.9783 81.1985 48.2904 86.8542 57.8938 90.1278C67.4973 93.4015 77.9775 94.1518 88.0578 92.2873C98.1382 90.4229 107.384 86.0243 114.668 79.6272C121.952 73.23 126.961 65.1106 129.084 56.2579C131.207 47.4053 130.352 38.2015 126.625 29.7676C122.897 21.3338 116.457 14.034 108.089 8.75752C99.7214 3.48099 89.7868 0.455469 79.4957 0.0494959C80.3201 0.0161908 81.1578 0.00170898 81.9987 0.00170898C97.3807 0.00209301 112.133 5.36857 123.009 14.9207C133.886 24.4728 139.997 37.4281 139.997 50.9368Z" fill="url(#paint3_linear_38_782)"/>
<g opacity="0.5">
<path d="M139.992 0.00144905C136.451 4.86169 131.573 8.85995 125.807 11.627C120.042 14.394 113.575 15.8405 107.005 15.8329H80.9993C73.9219 15.8263 66.9125 17.0456 60.3724 19.421C53.8323 21.7964 47.8899 25.2813 42.8853 29.6762C37.8808 34.0711 33.9124 39.2897 31.2074 45.0332C28.5023 50.7768 27.1138 56.9324 27.1211 63.1479C27.1202 64.841 27.2242 66.5329 27.4328 68.216C24.7793 61.7439 23.645 54.867 24.0982 47.9997C24.5514 41.1323 26.5828 34.4166 30.0699 28.257C33.557 22.0974 38.4277 16.6214 44.3886 12.1588C50.3496 7.6963 57.2774 4.33956 64.7547 2.29081C64.7828 2.28068 64.8091 2.27633 64.8421 2.26619C70.4005 0.76252 76.184 -0.00135323 82.0002 1.79957e-06L139.992 0.00144905Z" fill="url(#paint4_linear_38_782)"/>
</g>
<g opacity="0.25">
<path opacity="0.1" d="M64.0771 99.3853C64.7004 99.5678 65.3236 99.7359 65.9568 99.8939C65.3154 99.7403 64.7004 99.5722 64.0771 99.3853Z" fill="url(#paint5_linear_38_782)"/>
</g>
<path d="M139.997 0.00170898C140.01 8.30016 136.453 16.2965 130.038 22.39C129.073 23.3138 128.047 24.1875 126.966 25.0066C120.137 30.1968 111.405 33.0497 102.374 33.0418H81.7364C81.649 33.0418 81.5617 33.0418 81.4743 33.0418C75.7306 33.0634 70.0608 34.1805 64.8571 36.3158C64.3426 36.5171 63.8397 36.7387 63.3434 36.9645C56.8381 39.926 51.3848 44.4007 47.5793 49.8997C43.7737 55.3987 41.7623 61.7104 41.7647 68.1453C41.7647 68.3756 41.7647 68.6015 41.7763 68.8317C41.8048 70.3438 41.9474 71.8526 42.2034 73.3482C42.7172 76.3987 43.6915 79.3755 45.1004 82.2001C45.3576 82.7136 45.6324 83.2224 45.9248 83.7263C46.0337 83.9334 46.1491 84.1347 46.2744 84.3316C46.558 84.8254 46.8647 85.3105 47.1813 85.7912C50.8366 91.2957 56.1214 95.8279 62.4744 98.9062C62.4462 98.9001 62.4186 98.8919 62.392 98.8816C62.0523 98.7759 61.7094 98.6658 61.3747 98.55C61.0399 98.4341 60.7151 98.3299 60.3853 98.214C60.26 98.1706 60.1397 98.1228 60.0143 98.0794L59.1899 97.7767C58.4743 97.5074 57.7636 97.224 57.0579 96.9267C56.7034 96.7819 56.3522 96.6371 56.0027 96.4749C55.7355 96.3591 55.4668 96.2403 55.2046 96.1144C55.0183 96.0333 54.8336 95.9507 54.6522 95.8595C54.3357 95.7147 54.0174 95.5569 53.7008 95.4034C53.4436 95.2788 53.1815 95.1485 52.9242 95.0138C52.1262 94.6055 51.3391 94.1817 50.5631 93.7425C50.2844 93.589 50.0107 93.4297 49.7386 93.2675L49.3726 93.0517C49.0939 92.8881 48.8202 92.7201 48.5482 92.5478C48.2761 92.3755 47.9958 92.2017 47.7237 92.0251C47.5209 91.9005 47.3198 91.7702 47.1219 91.6355C46.5036 91.2272 45.8968 90.8058 45.3082 90.3786C45.1004 90.2338 44.8976 90.089 44.7014 89.9442C44.5052 89.7994 44.2743 89.6329 44.0666 89.4693C44.0481 89.4606 44.0314 89.4493 44.0171 89.436C43.7269 89.2159 43.4383 88.99 43.1531 88.7597C42.1253 87.9488 41.1305 87.1041 40.1687 86.2256C39.9609 86.0388 39.7531 85.8419 39.5503 85.6464C39.4794 85.5842 39.4135 85.5219 39.3475 85.4538C39.1398 85.2569 38.9271 85.0513 38.7243 84.8486C38.3697 84.5025 38.0251 84.152 37.6805 83.7973C37.4942 83.6047 37.3095 83.4077 37.1282 83.2181C36.6335 82.6953 36.1603 82.1624 35.6953 81.6252C35.5304 81.4427 35.3837 81.2603 35.2303 81.0778C35.077 80.8954 34.9137 80.6984 34.7604 80.5117L34.64 80.3669C34.4488 80.1323 34.269 79.902 34.0877 79.666C33.9722 79.5212 33.8634 79.3764 33.7579 79.2316C33.7299 79.1983 33.7035 79.1693 33.682 79.136C33.4622 78.8387 33.2423 78.5409 33.0225 78.2426C32.8741 78.05 32.7389 77.853 32.602 77.6633C32.3992 77.3737 32.203 77.0928 32.0117 76.8047C31.9693 76.7494 31.9307 76.6918 31.8963 76.6323C31.7166 76.363 31.5352 76.0951 31.367 75.8214L31.0224 75.2741C30.4871 74.4149 29.9842 73.5412 29.5137 72.6531C29.3274 72.3215 29.1526 71.9856 28.9844 71.6496C28.935 71.5439 28.8806 71.4382 28.8311 71.3325C28.6563 70.9864 28.4865 70.6418 28.3364 70.2913C28.315 70.2479 28.2919 70.2001 28.2705 70.1567C28.0842 69.7585 27.9094 69.3602 27.7346 68.9562C27.7181 68.9229 27.7066 68.8896 27.6901 68.8549C27.6027 68.6536 27.5153 68.4523 27.4394 68.2452C27.3026 67.9093 27.1657 67.569 27.0355 67.2316C26.9052 66.8942 26.7783 66.5496 26.6529 66.205C26.554 65.9313 26.4617 65.6576 26.3693 65.3839C26.2045 64.9176 26.0627 64.4528 25.9209 63.9822C25.8499 63.7476 25.779 63.5116 25.718 63.2712C25.6306 62.9729 25.5532 62.6761 25.4724 62.3734C25.3685 61.994 25.2761 61.6103 25.1888 61.2266C25.0898 60.8139 24.9975 60.3954 24.915 59.9784C24.8557 59.6801 24.7947 59.3832 24.7502 59.0806C24.6413 58.5013 24.5424 57.9091 24.46 57.3183C24.4055 56.9389 24.3561 56.5552 24.3132 56.1714C24.2703 55.821 24.2374 55.4662 24.2044 55.11C24.1879 54.9652 24.1764 54.832 24.1665 54.6872C24.1384 54.3512 24.112 54.011 24.0956 53.6736C24.0929 53.6321 24.0929 53.5905 24.0956 53.549C24.0791 53.2942 24.0675 53.0408 24.0576 52.7859C24.0461 52.56 24.0411 52.3298 24.0362 52.0995C24.0247 51.7245 24.0197 51.3465 24.0197 50.9672C24.0197 50.5878 24.0197 50.1852 24.0362 49.7957C24.0362 49.6379 24.0362 49.4742 24.0527 49.3164C24.0642 49.0094 24.0741 48.7024 24.0956 48.3954V48.3085C24.1236 47.906 24.15 47.4976 24.1829 47.0994C24.1829 47.0748 24.1829 47.0473 24.1945 47.0227C24.2275 46.5998 24.2703 46.1785 24.3198 45.76C24.3643 45.3849 24.4121 45.0113 24.4616 44.6421C24.5166 44.2482 24.5765 43.8592 24.6413 43.475C24.6743 43.2925 24.7007 43.1101 24.7403 42.9319C24.7831 42.6727 24.8326 42.4135 24.887 42.1587C24.9793 41.6693 25.0832 41.1866 25.1987 40.7106C25.286 40.3211 25.385 39.933 25.4822 39.5522C25.5795 39.1714 25.6851 38.8036 25.7939 38.4343C25.8434 38.2562 25.8928 38.0737 25.9588 37.8971C26.0247 37.6712 26.0907 37.4511 26.1665 37.2252C26.1995 37.1094 26.2374 36.995 26.2754 36.8849C26.3523 36.6445 26.4342 36.4032 26.521 36.1609C26.5804 35.9741 26.6414 35.7916 26.7123 35.6034C26.9629 34.8924 27.2366 34.1915 27.5268 33.5008C27.6587 33.1895 27.789 32.8767 27.9259 32.5697C28.0083 32.3771 28.0907 32.186 28.1831 31.9992C28.4189 31.4909 28.658 30.9856 28.9102 30.4874C28.9976 30.305 29.09 30.1225 29.1839 29.9444C29.2219 29.872 29.2548 29.7996 29.2928 29.733C29.4395 29.4434 29.5929 29.1712 29.7462 28.8931C29.921 28.5673 30.1007 28.2502 30.287 27.9287C30.5443 27.4943 30.8064 27.0454 31.0735 26.6139C31.2203 26.3735 31.3736 26.1332 31.5319 25.8986C31.8765 25.3556 32.2376 24.8183 32.6136 24.2898C32.7884 24.0349 32.9681 23.7859 33.1495 23.5368C33.3308 23.2877 33.499 23.0619 33.6804 22.8258C33.8618 22.5898 34.0102 22.3914 34.175 22.1728C34.8346 21.3329 35.5178 20.5123 36.2246 19.7111C36.4543 19.4524 36.6896 19.1932 36.9303 18.9335C37.1051 18.7409 37.2799 18.5497 37.4662 18.3629C37.6904 18.1226 37.9262 17.8822 38.1603 17.6389C38.439 17.3493 38.7292 17.0684 39.0243 16.7846C39.3195 16.5008 39.6097 16.2184 39.9098 15.9447C40.134 15.7376 40.3533 15.5364 40.5825 15.3351C40.643 15.2772 40.7029 15.2245 40.7622 15.1772C40.926 15.0237 41.0909 14.8789 41.2569 14.7428C41.4102 14.598 41.5636 14.4735 41.7169 14.3446C41.9131 14.1766 42.111 14.013 42.3072 13.8508C43.1657 13.1403 44.0451 12.4539 44.9454 11.7917C45.2026 11.6049 45.4648 11.4167 45.727 11.2357C45.9891 11.0546 46.2414 10.8707 46.5036 10.6984C46.5959 10.6318 46.6899 10.5696 46.7822 10.5058C47.0279 10.3422 47.2769 10.18 47.5209 10.0207C48.1327 9.62253 48.7559 9.22866 49.3907 8.84927L49.9316 8.53215C50.1822 8.38735 50.4262 8.24254 50.6917 8.09774L50.817 8.02534C51.1006 7.8675 51.3908 7.70821 51.681 7.55472C53.0309 6.82008 54.4176 6.13853 55.8411 5.51008C56.1577 5.36527 56.4808 5.22047 56.8024 5.09304C57.0645 4.9772 57.3267 4.86714 57.5955 4.76144C57.8312 4.66007 58.0654 4.56885 58.3061 4.47183C59.1866 4.12575 60.0819 3.79559 60.9905 3.48716C61.2972 3.38145 61.5973 3.28009 61.9089 3.18452C62.0293 3.14108 62.1496 3.10343 62.27 3.06433C62.6476 2.94414 63.0301 2.82395 63.4127 2.7139C63.8611 2.57923 64.3146 2.45036 64.768 2.32438C64.796 2.31424 64.8224 2.3099 64.8554 2.29976C65.2759 2.18392 65.7079 2.07387 66.1349 1.96816C66.501 1.87693 66.867 1.7857 67.2331 1.70461L67.8728 1.55981C68.2125 1.48306 68.5554 1.41501 68.9001 1.34405C68.9116 1.34405 68.9215 1.34405 68.933 1.33391C69.3815 1.24317 69.835 1.15677 70.2933 1.07471C70.3125 1.06905 70.3325 1.06564 70.3527 1.06458C70.7682 0.98783 71.1887 0.919772 71.6091 0.853162C71.8597 0.809721 72.1038 0.772069 72.3577 0.737316C73.0173 0.635953 73.6867 0.550519 74.3578 0.473773C74.648 0.440467 74.9316 0.407163 75.2218 0.382546C75.5614 0.343449 75.9044 0.310144 76.2441 0.281183C76.6596 0.242086 77.0685 0.21457 77.4906 0.185609C77.5376 0.179705 77.585 0.17632 77.6324 0.175473C78.0908 0.142168 78.5624 0.117555 79.0257 0.0987301C79.4132 0.0799054 79.8073 0.0654212 80.1947 0.0552849C80.3745 0.0552849 80.5558 0.0451486 80.7356 0.0451486C81.156 0.0350123 81.5831 0.0306706 82.0085 0.0306706L139.997 0.00170898Z" fill="url(#paint6_linear_38_782)"/>
<g opacity="0.5">
<path d="M139.992 0.00144905C136.451 4.86169 131.573 8.85995 125.807 11.627C120.042 14.394 113.575 15.8405 107.005 15.8329H80.9993C73.9219 15.8263 66.9125 17.0456 60.3724 19.421C53.8323 21.7964 47.8899 25.2813 42.8853 29.6762C37.8808 34.0711 33.9124 39.2897 31.2074 45.0332C28.5023 50.7768 27.1138 56.9324 27.1211 63.1479C27.1202 64.841 27.2242 66.5329 27.4328 68.216C24.7793 61.7439 23.645 54.867 24.0982 47.9997C24.5514 41.1323 26.5828 34.4166 30.0699 28.257C33.557 22.0974 38.4277 16.6214 44.3886 12.1588C50.3496 7.6963 57.2774 4.33956 64.7547 2.29081C64.7828 2.28068 64.8091 2.27633 64.8421 2.26619C70.4005 0.76252 76.184 -0.00135323 82.0002 1.79957e-06L139.992 0.00144905Z" fill="url(#paint7_linear_38_782)"/>
</g>
<g opacity="0.25">
<path d="M24.0049 101.872C27.546 97.0113 32.4245 93.0131 38.19 90.246C43.9554 87.479 50.4218 86.0325 56.992 86.04H82.9995C90.0769 86.0465 97.0863 84.8271 103.626 82.4515C110.167 80.0759 116.109 76.5909 121.114 72.1958C126.118 67.8008 130.086 62.5821 132.791 56.8385C135.496 51.0949 136.885 44.9392 136.878 38.7237C136.879 37.0306 136.775 35.3387 136.566 33.6555C139.221 40.128 140.356 47.0054 139.903 53.8734C139.45 60.7414 137.419 67.4579 133.932 73.6182C130.445 79.7784 125.574 85.255 119.612 89.718C113.651 94.1809 106.722 97.5379 99.244 99.5865C99.216 99.5967 99.1896 99.601 99.1567 99.6112C93.5983 101.115 87.8147 101.879 81.9986 101.877L24.0049 101.872Z" fill="url(#paint8_linear_38_782)"/>
</g>
<g opacity="0.5">
<path d="M115.565 0.00170898C115.684 8.00384 112.934 15.8362 107.705 22.39C106.952 23.3016 106.142 24.1752 105.277 25.0066C103.44 26.7958 101.332 28.355 99.0118 29.6403C95.0865 31.8473 90.5279 33.0294 85.8671 33.049H81.7284C81.641 33.049 81.5537 33.049 81.4663 33.049C81.1992 33.049 80.9304 33.049 80.6682 33.0635C80.2692 33.0635 79.8751 33.0823 79.4761 33.1012L79.1645 33.1156C66.6623 33.7239 54.8487 38.3393 45.963 46.0869C37.0774 53.8346 31.7373 64.1761 30.9551 75.151C30.4417 74.3256 29.9586 73.4857 29.5057 72.6314C29.3194 72.2998 29.1446 71.9638 28.9764 71.6279C28.927 71.5222 28.8726 71.4165 28.8231 71.3108C28.6483 70.9647 28.4785 70.62 28.3284 70.2696C28.307 70.2262 28.2839 70.1784 28.2625 70.1349C28.0762 69.7367 27.9014 69.3385 27.7266 68.9345C27.7101 68.9012 27.6986 68.8679 27.6821 68.8332C27.5947 68.6319 27.5073 68.4306 27.4315 68.2235C27.2946 67.8876 27.1577 67.5473 27.0275 67.2099C26.8972 66.8725 26.7703 66.5279 26.6449 66.1832C26.546 65.9096 26.4537 65.6359 26.3613 65.3622C26.1965 64.8959 26.0547 64.4311 25.9129 63.9605C25.842 63.7259 25.7711 63.4899 25.71 63.2495C25.6227 62.9512 25.5452 62.6543 25.4644 62.3517C25.3605 61.9723 25.2682 61.5886 25.1808 61.2048C25.0818 60.7921 24.9895 60.3737 24.907 59.9566C24.8477 59.6583 24.7867 59.3615 24.7422 59.0588C24.6333 58.4796 24.5344 57.8874 24.452 57.2966C24.3975 56.9172 24.3481 56.5334 24.3052 56.1497C24.2623 55.7993 24.2294 55.4445 24.1964 55.0883C24.1799 54.9435 24.1684 54.8103 24.1585 54.6655C24.1304 54.3295 24.1041 53.9892 24.0876 53.6518C24.0849 53.6104 24.0849 53.5688 24.0876 53.5273C24.0711 53.2724 24.0595 53.019 24.0496 52.7642C24.0381 52.5383 24.0332 52.308 24.0282 52.0778C24.0167 51.7028 24.0117 51.3248 24.0117 50.9454C24.0117 50.566 24.0117 50.1635 24.0282 49.774C24.0282 49.6161 24.0282 49.4525 24.0447 49.2947C24.0562 48.9877 24.0661 48.6807 24.0876 48.3737V48.2868C24.1156 47.8843 24.142 47.4759 24.175 47.0777C24.175 47.0531 24.175 47.0256 24.1865 47.001C24.2195 46.5781 24.2623 46.1567 24.3118 45.7383C24.3563 45.3632 24.4042 44.9896 24.4536 44.6204C24.5086 44.2265 24.5685 43.8375 24.6333 43.4532C24.6663 43.2708 24.6927 43.0883 24.7323 42.9102C24.7751 42.651 24.8246 42.3918 24.879 42.137C24.9714 41.6475 25.0752 41.1648 25.1907 40.6889C25.278 40.2994 25.377 39.9113 25.4743 39.5305C25.5715 39.1497 25.6771 38.7818 25.7859 38.4126C25.8354 38.2345 25.8848 38.052 25.9508 37.8754C26.0167 37.6495 26.0827 37.4294 26.1585 37.2035C26.1915 37.0876 26.2294 36.9732 26.2674 36.8632C26.3443 36.6228 26.4262 36.3815 26.513 36.1392C26.5724 35.9524 26.6334 35.7699 26.7043 35.5817C26.9549 34.8707 27.2286 34.1698 27.5188 33.4791C27.6508 33.1678 27.781 32.855 27.9179 32.548C28.0003 32.3554 28.0828 32.1643 28.1751 31.9775C28.4109 31.4692 28.65 30.9638 28.9022 30.4657C28.9896 30.2833 29.082 30.1008 29.176 29.9227C29.2139 29.8503 29.2469 29.7779 29.2848 29.7113C29.4315 29.4217 29.5849 29.1494 29.7382 28.8714C29.913 28.5456 30.0927 28.2285 30.279 27.907C30.5363 27.4726 30.7984 27.0237 31.0655 26.5922C31.2123 26.3518 31.3656 26.1114 31.5239 25.8769C31.8685 25.3338 32.2296 24.7966 32.6056 24.2681C32.7804 24.0132 32.9601 23.7642 33.1415 23.5151C33.3228 23.266 33.491 23.0401 33.6724 22.8041C33.8538 22.5681 34.0022 22.3697 34.1671 22.151C34.8266 21.3112 35.5098 20.4906 36.2166 19.6894C36.4463 19.4306 36.6816 19.1714 36.9223 18.9118C37.0971 18.7192 37.2719 18.528 37.4582 18.3412C37.6824 18.1008 37.9182 17.8605 38.1523 17.6172C38.431 17.3276 38.7212 17.0467 39.0163 16.7628C39.3115 16.479 39.6017 16.1967 39.9018 15.923C40.126 15.7159 40.3453 15.5146 40.5745 15.3134C40.635 15.2554 40.6949 15.2028 40.7542 15.1555C40.918 15.002 41.0829 14.8572 41.2489 14.7211C41.4023 14.5763 41.5556 14.4518 41.7089 14.3229C41.9052 14.1549 42.103 13.9913 42.2992 13.8291C43.1577 13.1186 44.0371 12.4322 44.9374 11.77C45.1946 11.5832 45.4568 11.3949 45.719 11.2139C45.9811 11.0329 46.2334 10.849 46.4956 10.6767C46.5879 10.6101 46.6819 10.5478 46.7742 10.4841C47.0199 10.3205 47.2689 10.1583 47.5129 9.99902C48.1247 9.60081 48.7479 9.20694 49.3827 8.82755L49.9236 8.51043C50.1742 8.36563 50.4182 8.22082 50.6837 8.07602L50.809 8.00362C51.0926 7.84578 51.3828 7.68649 51.673 7.533C53.0229 6.79836 54.4096 6.11681 55.8331 5.48836C56.1497 5.34355 56.4728 5.19875 56.7944 5.07132C57.0565 4.95548 57.3187 4.84542 57.5875 4.73972C57.8233 4.63835 58.0574 4.54713 58.2981 4.45011C59.1786 4.10402 60.0739 3.77387 60.9825 3.46544C61.2892 3.35973 61.5892 3.25836 61.9009 3.16279C62.0213 3.11935 62.1416 3.08171 62.262 3.04261C62.6396 2.92242 63.0221 2.80223 63.4047 2.69218C63.8531 2.55751 64.3066 2.42864 64.76 2.30266C64.788 2.29252 64.8144 2.28817 64.8474 2.27804C65.2679 2.16219 65.6999 2.05215 66.1269 1.94644C66.493 1.85521 66.859 1.76398 67.2251 1.68289L67.8648 1.53809C68.2045 1.46134 68.5475 1.39328 68.8921 1.32233C68.9036 1.32233 68.9135 1.32233 68.925 1.31219C69.3735 1.22145 69.827 1.13505 70.2854 1.05299C70.3045 1.04733 70.3245 1.04392 70.3447 1.04286C70.7602 0.966111 71.1807 0.898053 71.6011 0.831442C71.8518 0.788001 72.0958 0.750349 72.3497 0.715596C73.0093 0.614233 73.6787 0.528799 74.3498 0.452053C74.64 0.418748 74.9236 0.385443 75.2138 0.360826C75.5535 0.321729 75.8964 0.288424 76.2361 0.259463C76.6516 0.220366 77.0605 0.19285 77.4826 0.163889C77.5296 0.157986 77.577 0.154601 77.6244 0.153753C78.0828 0.120448 78.5544 0.0958348 79.0177 0.0770102C79.4052 0.0581856 79.7993 0.0437014 80.1868 0.0335651C80.3665 0.0335651 80.5479 0.0234288 80.7276 0.0234288C81.148 0.0132925 81.5751 0.00895076 82.0005 0.00895076L115.565 0.00170898Z" fill="url(#paint9_linear_38_782)"/>
</g>
<path opacity="0.25" d="M114.453 40.331C114.452 47.7563 111.152 54.8882 105.254 60.209C99.3569 65.5297 91.3278 68.6192 82.8758 68.8199H82.7109C87.9874 68.6556 92.9854 66.6991 96.6519 63.3627C100.318 60.0263 102.367 55.5704 102.367 50.9336V33.043C105.945 33.0465 109.504 32.6004 112.938 31.718C113.942 34.5039 114.453 37.4088 114.453 40.331Z" fill="url(#paint10_linear_38_782)"/>
<path d="M7.86 125.263C6.55333 125.263 5.35333 124.956 4.26 124.343C3.16667 123.729 2.3 122.883 1.66 121.803C1.02 120.709 0.7 119.476 0.7 118.103C0.7 116.743 1.02 115.523 1.66 114.443C2.3 113.349 3.16667 112.496 4.26 111.883C5.35333 111.269 6.55333 110.963 7.86 110.963C9.18 110.963 10.38 111.269 11.46 111.883C12.5533 112.496 13.4133 113.349 14.04 114.443C14.68 115.523 15 116.743 15 118.103C15 119.476 14.68 120.709 14.04 121.803C13.4133 122.883 12.5533 123.729 11.46 124.343C10.3667 124.956 9.16667 125.263 7.86 125.263ZM7.86 122.763C8.7 122.763 9.44 122.576 10.08 122.203C10.72 121.816 11.22 121.269 11.58 120.563C11.94 119.856 12.12 119.036 12.12 118.103C12.12 117.169 11.94 116.356 11.58 115.663C11.22 114.956 10.72 114.416 10.08 114.043C9.44 113.669 8.7 113.483 7.86 113.483C7.02 113.483 6.27333 113.669 5.62 114.043C4.98 114.416 4.48 114.956 4.12 115.663C3.76 116.356 3.58 117.169 3.58 118.103C3.58 119.036 3.76 119.856 4.12 120.563C4.48 121.269 4.98 121.816 5.62 122.203C6.27333 122.576 7.02 122.763 7.86 122.763ZM21.3231 125.303C20.4165 125.303 19.6031 125.143 18.8831 124.823C18.1631 124.489 17.5898 124.043 17.1631 123.483C16.7498 122.923 16.5231 122.303 16.4831 121.623H19.3031C19.3565 122.049 19.5631 122.403 19.9231 122.683C20.2965 122.963 20.7565 123.103 21.3031 123.103C21.8365 123.103 22.2498 122.996 22.5431 122.783C22.8498 122.569 23.0031 122.296 23.0031 121.963C23.0031 121.603 22.8165 121.336 22.4431 121.163C22.0831 120.976 21.5031 120.776 20.7031 120.563C19.8765 120.363 19.1965 120.156 18.6631 119.943C18.1431 119.729 17.6898 119.403 17.3031 118.963C16.9298 118.523 16.7431 117.929 16.7431 117.183C16.7431 116.569 16.9165 116.009 17.2631 115.503C17.6231 114.996 18.1298 114.596 18.7831 114.303C19.4498 114.009 20.2298 113.863 21.1231 113.863C22.4431 113.863 23.4965 114.196 24.2831 114.863C25.0698 115.516 25.5031 116.403 25.5831 117.523H22.9031C22.8631 117.083 22.6765 116.736 22.3431 116.483C22.0231 116.216 21.5898 116.083 21.0431 116.083C20.5365 116.083 20.1431 116.176 19.8631 116.363C19.5965 116.549 19.4631 116.809 19.4631 117.143C19.4631 117.516 19.6498 117.803 20.0231 118.003C20.3965 118.189 20.9765 118.383 21.7631 118.583C22.5631 118.783 23.2231 118.989 23.7431 119.203C24.2631 119.416 24.7098 119.749 25.0831 120.203C25.4698 120.643 25.6698 121.229 25.6831 121.963C25.6831 122.603 25.5031 123.176 25.1431 123.683C24.7965 124.189 24.2898 124.589 23.6231 124.883C22.9698 125.163 22.2031 125.303 21.3231 125.303ZM43.3416 114.043L40.1016 125.123H37.0816L35.0616 117.383L33.0416 125.123H30.0016L26.7416 114.043H29.5816L31.5416 122.483L33.6616 114.043H36.6216L38.7016 122.463L40.6616 114.043H43.3416ZM44.1366 119.543C44.1366 118.423 44.3566 117.429 44.7966 116.563C45.2499 115.696 45.8566 115.029 46.6166 114.563C47.3899 114.096 48.2499 113.863 49.1966 113.863C50.0232 113.863 50.7432 114.029 51.3566 114.363C51.9832 114.696 52.4832 115.116 52.8566 115.623V114.043H55.6766V125.123H52.8566V123.503C52.4966 124.023 51.9966 124.456 51.3566 124.803C50.7299 125.136 50.0032 125.303 49.1766 125.303C48.2432 125.303 47.3899 125.063 46.6166 124.583C45.8566 124.103 45.2499 123.429 44.7966 122.563C44.3566 121.683 44.1366 120.676 44.1366 119.543ZM52.8566 119.583C52.8566 118.903 52.7232 118.323 52.4566 117.843C52.1899 117.349 51.8299 116.976 51.3766 116.723C50.9232 116.456 50.4366 116.323 49.9166 116.323C49.3966 116.323 48.9166 116.449 48.4766 116.703C48.0366 116.956 47.6766 117.329 47.3966 117.823C47.1299 118.303 46.9966 118.876 46.9966 119.543C46.9966 120.209 47.1299 120.796 47.3966 121.303C47.6766 121.796 48.0366 122.176 48.4766 122.443C48.9299 122.709 49.4099 122.843 49.9166 122.843C50.4366 122.843 50.9232 122.716 51.3766 122.463C51.8299 122.196 52.1899 121.823 52.4566 121.343C52.7232 120.849 52.8566 120.263 52.8566 119.583ZM67.9969 125.263C67.0235 125.263 66.1435 125.096 65.3569 124.763C64.5835 124.429 63.9702 123.949 63.5169 123.323C63.0635 122.696 62.8302 121.956 62.8169 121.103H65.8169C65.8569 121.676 66.0569 122.129 66.4169 122.463C66.7902 122.796 67.2969 122.963 67.9369 122.963C68.5902 122.963 69.1035 122.809 69.4769 122.503C69.8502 122.183 70.0369 121.769 70.0369 121.263C70.0369 120.849 69.9102 120.509 69.6569 120.243C69.4035 119.976 69.0835 119.769 68.6969 119.623C68.3235 119.463 67.8035 119.289 67.1369 119.103C66.2302 118.836 65.4902 118.576 64.9169 118.323C64.3569 118.056 63.8702 117.663 63.4569 117.143C63.0569 116.609 62.8569 115.903 62.8569 115.023C62.8569 114.196 63.0635 113.476 63.4769 112.863C63.8902 112.249 64.4702 111.783 65.2169 111.463C65.9635 111.129 66.8169 110.963 67.7769 110.963C69.2169 110.963 70.3835 111.316 71.2769 112.023C72.1835 112.716 72.6835 113.689 72.7769 114.943H69.6969C69.6702 114.463 69.4635 114.069 69.0769 113.763C68.7035 113.443 68.2035 113.283 67.5769 113.283C67.0302 113.283 66.5902 113.423 66.2569 113.703C65.9369 113.983 65.7769 114.389 65.7769 114.923C65.7769 115.296 65.8969 115.609 66.1369 115.863C66.3902 116.103 66.6969 116.303 67.0569 116.463C67.4302 116.609 67.9502 116.783 68.6169 116.983C69.5235 117.249 70.2635 117.516 70.8369 117.783C71.4102 118.049 71.9035 118.449 72.3169 118.983C72.7302 119.516 72.9369 120.216 72.9369 121.083C72.9369 121.829 72.7435 122.523 72.3569 123.163C71.9702 123.803 71.4035 124.316 70.6569 124.703C69.9102 125.076 69.0235 125.263 67.9969 125.263ZM86.9444 111.163V125.123H84.1444V119.183H78.1644V125.123H75.3644V111.163H78.1644V116.903H84.1444V111.163H86.9444ZM96.1803 125.263C94.8736 125.263 93.6736 124.956 92.5803 124.343C91.487 123.729 90.6203 122.883 89.9803 121.803C89.3403 120.709 89.0203 119.476 89.0203 118.103C89.0203 116.743 89.3403 115.523 89.9803 114.443C90.6203 113.349 91.487 112.496 92.5803 111.883C93.6736 111.269 94.8736 110.963 96.1803 110.963C97.5003 110.963 98.7003 111.269 99.7803 111.883C100.874 112.496 101.734 113.349 102.36 114.443C103 115.523 103.32 116.743 103.32 118.103C103.32 119.476 103 120.709 102.36 121.803C101.734 122.883 100.874 123.729 99.7803 124.343C98.687 124.956 97.487 125.263 96.1803 125.263ZM96.1803 122.763C97.0203 122.763 97.7603 122.576 98.4003 122.203C99.0403 121.816 99.5403 121.269 99.9003 120.563C100.26 119.856 100.44 119.036 100.44 118.103C100.44 117.169 100.26 116.356 99.9003 115.663C99.5403 114.956 99.0403 114.416 98.4003 114.043C97.7603 113.669 97.0203 113.483 96.1803 113.483C95.3403 113.483 94.5936 113.669 93.9403 114.043C93.3003 114.416 92.8003 114.956 92.4403 115.663C92.0803 116.356 91.9003 117.169 91.9003 118.103C91.9003 119.036 92.0803 119.856 92.4403 120.563C92.8003 121.269 93.3003 121.816 93.9403 122.203C94.5936 122.576 95.3403 122.763 96.1803 122.763ZM115.583 115.483C115.583 116.229 115.403 116.929 115.043 117.583C114.697 118.236 114.143 118.763 113.383 119.163C112.637 119.563 111.69 119.763 110.543 119.763H108.203V125.123H105.403V111.163H110.543C111.623 111.163 112.543 111.349 113.303 111.723C114.063 112.096 114.63 112.609 115.003 113.263C115.39 113.916 115.583 114.656 115.583 115.483ZM110.423 117.503C111.197 117.503 111.77 117.329 112.143 116.983C112.517 116.623 112.703 116.123 112.703 115.483C112.703 114.123 111.943 113.443 110.423 113.443H108.203V117.503H110.423ZM127.751 115.483C127.751 116.229 127.571 116.929 127.211 117.583C126.865 118.236 126.311 118.763 125.551 119.163C124.805 119.563 123.858 119.763 122.711 119.763H120.371V125.123H117.571V111.163H122.711C123.791 111.163 124.711 111.349 125.471 111.723C126.231 112.096 126.798 112.609 127.171 113.263C127.558 113.916 127.751 114.656 127.751 115.483ZM122.591 117.503C123.365 117.503 123.938 117.329 124.311 116.983C124.685 116.623 124.871 116.123 124.871 115.483C124.871 114.123 124.111 113.443 122.591 113.443H120.371V117.503H122.591ZM132.539 111.163V125.123H129.739V111.163H132.539ZM147.246 125.123H144.446L138.106 115.543V125.123H135.306V111.143H138.106L144.446 120.743V111.143H147.246V125.123ZM159.733 115.363C159.413 114.776 158.973 114.329 158.413 114.023C157.853 113.716 157.199 113.563 156.453 113.563C155.626 113.563 154.893 113.749 154.253 114.123C153.613 114.496 153.113 115.029 152.753 115.723C152.393 116.416 152.213 117.216 152.213 118.123C152.213 119.056 152.393 119.869 152.753 120.563C153.126 121.256 153.639 121.789 154.293 122.163C154.946 122.536 155.706 122.723 156.573 122.723C157.639 122.723 158.513 122.443 159.193 121.883C159.873 121.309 160.319 120.516 160.533 119.503H155.733V117.363H163.293V119.803C163.106 120.776 162.706 121.676 162.093 122.503C161.479 123.329 160.686 123.996 159.713 124.503C158.753 124.996 157.673 125.243 156.473 125.243C155.126 125.243 153.906 124.943 152.813 124.343C151.733 123.729 150.879 122.883 150.253 121.803C149.639 120.723 149.333 119.496 149.333 118.123C149.333 116.749 149.639 115.523 150.253 114.443C150.879 113.349 151.733 112.503 152.813 111.903C153.906 111.289 155.119 110.983 156.453 110.983C158.026 110.983 159.393 111.369 160.553 112.143C161.713 112.903 162.513 113.976 162.953 115.363H159.733Z" fill="url(#paint11_linear_38_782)"/>
<defs>
<linearGradient id="paint0_linear_38_782" x1="85.8692" y1="-9.72724" x2="84.9219" y2="109.94" gradientUnits="userSpaceOnUse">
<stop stop-color="#FA90D6"/>
<stop offset="1" stop-color="#601A49" stop-opacity="0.83"/>
</linearGradient>
<linearGradient id="paint1_linear_38_782" x1="85.8744" y1="-9.4463" x2="84.9811" y2="106.765" gradientUnits="userSpaceOnUse">
<stop stop-color="#FA90D6"/>
<stop offset="1" stop-color="#601A49" stop-opacity="0.83"/>
</linearGradient>
<linearGradient id="paint2_linear_38_782" x1="65.0796" y1="99.3367" x2="65.0781" y2="99.9343" gradientUnits="userSpaceOnUse">
<stop stop-color="#FA90D6"/>
<stop offset="1" stop-color="#601A49" stop-opacity="0.83"/>
</linearGradient>
<linearGradient id="paint3_linear_38_782" x1="119.582" y1="12.8373" x2="64.4841" y2="98.9232" gradientUnits="userSpaceOnUse">
<stop stop-color="#19BFB6"/>
<stop offset="1" stop-color="#19BFB6" stop-opacity="0"/>
</linearGradient>
<linearGradient id="paint4_linear_38_782" x1="85.863" y1="-6.51644" x2="85.438" y2="73.6392" gradientUnits="userSpaceOnUse">
<stop stop-color="#FA90D6"/>
<stop offset="1" stop-color="#601A49" stop-opacity="0.83"/>
</linearGradient>
<linearGradient id="paint5_linear_38_782" x1="65.0796" y1="99.3367" x2="65.0781" y2="99.9343" gradientUnits="userSpaceOnUse">
<stop stop-color="#FA90D6"/>
<stop offset="1" stop-color="#601A49" stop-opacity="0.83"/>
</linearGradient>
<linearGradient id="paint6_linear_38_782" x1="85.8744" y1="-9.4463" x2="84.9811" y2="106.765" gradientUnits="userSpaceOnUse">
<stop stop-color="#FF46C0"/>
<stop offset="1" stop-color="#601A49" stop-opacity="0.83"/>
</linearGradient>
<linearGradient id="paint7_linear_38_782" x1="85.863" y1="-6.51644" x2="85.438" y2="73.6392" gradientUnits="userSpaceOnUse">
<stop stop-color="#FA90D6"/>
<stop offset="1" stop-color="#601A49" stop-opacity="0.83"/>
</linearGradient>
<linearGradient id="paint8_linear_38_782" x1="85.8689" y1="27.1385" x2="85.4439" y2="107.301" gradientUnits="userSpaceOnUse">
<stop stop-color="#FA90D6"/>
<stop offset="1" stop-color="#601A49" stop-opacity="0.83"/>
</linearGradient>
<linearGradient id="paint9_linear_38_782" x1="72.842" y1="-7.17704" x2="72.1886" y2="81.123" gradientUnits="userSpaceOnUse">
<stop stop-color="#FA90D6"/>
<stop offset="1" stop-color="#601A49" stop-opacity="0.83"/>
</linearGradient>
<linearGradient id="paint10_linear_38_782" x1="99.6402" y1="28.1738" x2="99.1808" y2="71.7658" gradientUnits="userSpaceOnUse">
<stop stop-color="#FA90D6"/>
<stop offset="1" stop-color="#601A49" stop-opacity="0.83"/>
</linearGradient>
<linearGradient id="paint11_linear_38_782" x1="87.4667" y1="100.639" x2="87.423" y2="131.188" gradientUnits="userSpaceOnUse">
<stop stop-color="#FA90D6"/>
<stop offset="1" stop-color="#601A49" stop-opacity="0.83"/>
</linearGradient>
</defs>
</svg>
