<svg width="37" height="34" viewBox="0 0 37 34" fill="none" xmlns="http://www.w3.org/2000/svg">
<path d="M9.25 6.8V1.7C9.25 1.24913 9.44491 0.81673 9.79185 0.497918C10.1388 0.179107 10.6093 0 11.1 0H25.9C26.3907 0 26.8612 0.179107 27.2081 0.497918C27.5551 0.81673 27.75 1.24913 27.75 1.7V6.8H37V10.2H33.3V32.3C33.3 32.7509 33.1051 33.1833 32.7581 33.5021C32.4112 33.8209 31.9407 34 31.45 34H5.55C5.05935 34 4.5888 33.8209 4.24185 33.5021C3.89491 33.1833 3.7 32.7509 3.7 32.3V10.2H0V6.8H9.25ZM12.95 3.4V6.8H24.05V3.4H12.95Z" fill="url(#paint0_linear_58_775)"/>
<defs>
<linearGradient id="paint0_linear_58_775" x1="19.7333" y1="-3.2479" x2="19.4024" y2="36.7014" gradientUnits="userSpaceOnUse">
<stop stop-color="#FA90D6"/>
<stop offset="1" stop-color="#601A49" stop-opacity="0.83"/>
</linearGradient>
</defs>
</svg>
