<svg width="31" height="30" viewBox="0 0 31 30" fill="none" xmlns="http://www.w3.org/2000/svg">
<path d="M30.0491 3.55133C28.9257 4.16371 27.7341 4.56567 26.514 4.74385C27.7849 3.80656 28.7607 2.32232 29.2202 0.553868C28.0121 1.43606 26.6903 2.05761 25.3119 2.39168C24.1891 0.919845 22.5896 0 20.8193 0C17.4201 0 14.6642 3.39098 14.6642 7.57333C14.6642 8.16699 14.7187 8.74494 14.8236 9.29939C9.70837 8.98345 5.17321 5.96839 2.13747 1.38633C1.60778 2.50488 1.30427 3.80599 1.30427 5.19376C1.30427 7.82135 2.39095 10.1393 4.04235 11.4976C3.06495 11.4599 2.10905 11.1351 1.25446 10.5502C1.25411 10.5819 1.25411 10.6136 1.25411 10.6455C1.25411 14.3149 3.37567 17.376 6.19122 18.0717C5.28488 18.375 4.33418 18.4194 3.41177 18.2015C4.19493 21.2104 6.46802 23.3999 9.16122 23.4612C7.05478 25.4923 4.40083 26.7032 1.51731 26.7032C1.02044 26.7032 0.530596 26.6673 0.0490723 26.5973C2.77286 28.7462 6.00806 30 9.48384 30C20.805 30 26.9956 18.4596 26.9956 8.45164C26.9956 8.12316 26.9898 7.79655 26.9778 7.47181C28.1828 6.39996 29.2228 5.07236 30.0491 3.55133Z" fill="black"/>
</svg>
