<svg width="30" height="30" viewBox="0 0 30 30" fill="none" xmlns="http://www.w3.org/2000/svg">
<path d="M23.6748 21.5866L30 27.9103L27.9103 30L21.5866 23.6748C19.2336 25.561 16.307 26.5869 13.2913 26.5827C5.95451 26.5827 0 20.6281 0 13.2913C0 5.95451 5.95451 0 13.2913 0C20.6281 0 26.5827 5.95451 26.5827 13.2913C26.5869 16.307 25.561 19.2336 23.6748 21.5866ZM20.7123 20.4908C22.5866 18.5634 23.6333 15.9798 23.629 13.2913C23.629 7.57901 19.0022 2.95363 13.2913 2.95363C7.57901 2.95363 2.95363 7.57901 2.95363 13.2913C2.95363 19.0022 7.57901 23.629 13.2913 23.629C15.9798 23.6333 18.5634 22.5866 20.4908 20.7123L20.7123 20.4908Z" fill="#767676"/>
</svg>
